<?xml version="1.0" standalone="no"?>
<!DOCTYPE svg PUBLIC "-//W3C//DTD SVG 20010904//EN"
 "http://www.w3.org/TR/2001/REC-SVG-20010904/DTD/svg10.dtd">
<svg version="1.0" xmlns="http://www.w3.org/2000/svg"
 width="700.000000pt" height="700.000000pt" viewBox="0 0 700.000000 700.000000"
 preserveAspectRatio="xMidYMid meet">
<metadata>
Created by potrace 1.14, written by Peter Selinger 2001-2017
</metadata>
<g transform="translate(0.000000,700.000000) scale(0.100000,-0.100000)"
fill="#000000" stroke="none">
<path d="M1130 5833 c-252 -18 -478 -212 -533 -458 -11 -47 -13 -196 -13 -675
l1 -615 68 -7 c168 -19 325 -117 418 -262 70 -107 94 -193 92 -333 -3 -278
-232 -533 -502 -559 -31 -3 -61 -7 -67 -9 -8 -2 -10 -182 -9 -637 2 -572 4
-638 20 -688 31 -99 77 -172 155 -250 82 -82 177 -137 280 -161 44 -10 540
-12 2450 -12 1317 0 2414 3 2437 6 223 33 424 223 479 454 4 15 8 851 9 1858
1 1500 -1 1841 -12 1890 -48 216 -235 402 -448 446 -47 9 -587 12 -2425 13
-1301 1 -2381 0 -2400 -1z m4702 -595 c3 -11 2 -3434 -1 -3475 -1 -19 -4661
-19 -4662 0 0 6 -1 174 -1 372 -1 336 0 360 17 370 33 19 152 109 193 146 177
162 313 411 356 654 23 131 14 346 -19 475 -67 258 -226 494 -439 650 -45 33
-88 65 -96 72 -13 11 -15 63 -13 368 0 195 2 361 2 368 1 9 474 12 2330 12
1854 0 2330 -3 2333 -12z"/>
<path d="M3109 4556 c-2 -3 -16 -7 -29 -10 -64 -13 -324 -78 -329 -83 -7 -5 8
-34 151 -283 34 -58 76 -131 94 -163 19 -32 34 -61 34 -64 0 -3 8 -17 19 -31
10 -15 74 -126 143 -247 69 -121 152 -267 186 -325 33 -58 58 -108 54 -111 -5
-5 -291 -79 -362 -94 -8 -2 -53 -13 -100 -25 -47 -12 -94 -24 -105 -26 -11 -2
-43 -10 -70 -18 l-50 -15 -174 132 c-96 72 -179 135 -186 139 -7 4 -27 3 -46
-3 -19 -5 -43 -12 -54 -14 -11 -3 -57 -14 -103 -26 l-82 -22 24 -41 c13 -23
81 -140 151 -261 71 -121 138 -239 151 -261 115 -206 151 -259 175 -258 13 0
112 24 219 52 433 114 505 133 740 195 135 36 342 91 460 122 118 32 271 72
340 90 69 18 188 49 265 69 77 21 217 57 310 82 290 76 303 81 356 135 112
115 110 308 -4 411 -32 29 -108 61 -153 66 -23 2 -68 -2 -101 -9 -68 -15 -54
-11 -173 -44 -52 -15 -102 -28 -110 -30 -8 -1 -109 -28 -224 -59 l-210 -56
-65 62 c-36 34 -73 69 -82 78 -8 8 -71 67 -139 130 -67 63 -141 132 -164 154
-23 21 -90 85 -151 141 -60 57 -128 120 -151 142 -40 38 -261 245 -358 336
-44 41 -82 58 -97 43z"/>
</g>
</svg>
