<svg fill="#3B487C" height="36" viewBox="0 0 175.19034 35.84304" xmlns="http://www.w3.org/2000/svg"><path d="m 53.556056,28.47779 v -2.6035 h 6.6675 q 1.905,0 2.9845,-1.11125 1.0795,-1.143 1.0795,-2.7305 0,-1.0795 -0.47625,-1.93675 -0.47625,-0.889 -1.397,-1.397 -0.889,-0.508 -2.0955,-0.508 h -6.76275 v -2.6035 h 6.31825 q 1.5875,0 2.50825,-0.8255 0.9525,-0.85725 0.9525,-2.44475 0,-1.5875 -0.98425,-2.413 -0.98425,-0.85725 -2.6035,-0.85725 h -6.19125 v -2.6035 h 6.25475 q 2.159,0 3.58775,0.79375 1.4605,0.762 2.19075,2.032 0.762,1.27 0.762,2.794 0,1.778 -0.98425,3.1115 -0.9525,1.3335 -2.82575,2.0955 l 0.254,-0.9525 q 2.12725,0.762 3.302,2.31775 1.2065,1.524 1.2065,3.6195 0,1.74625 -0.85725,3.14325 -0.85725,1.397 -2.4765,2.25425 -1.5875,0.8255 -3.90525,0.8255 z m -2.00025,0 V 6.44329 h 2.9845 v 22.0345 z m 25.33648,0.3175 q -1.8415,0 -3.33375,-0.8255 -1.4605,-0.85725 -2.286,-2.3495 -0.8255,-1.49225 -0.8255,-3.46075 v -8.763 h 2.8575 v 8.636 q 0,1.23825 0.41275,2.159 0.4445,0.889 1.27,1.36525 0.8255,0.47625 1.93675,0.47625 1.68275,0 2.63525,-1.04775 0.9525,-1.0795 0.9525,-2.95275 v -8.636 h 2.8575 v 8.763 q 0,1.9685 -0.8255,3.46075 -0.8255,1.49225 -2.286,2.3495 -1.42875,0.8255 -3.3655,0.8255 z m 15.27177,-0.1905 -6.5405,-15.20825 h 3.175 l 4.85775,11.90625 h -1.016 l 5.11175,-11.90625 h 3.175004 l -7.048504,15.20825 z m -4.318,6.19125 4.445,-9.11225 1.5875,2.921 -2.8575,6.19125 z m 37.242764,-6.31825 -10.541,-11.303 q -1.23825,-1.3335 -1.8415,-2.54 -0.60325,-1.2065 -0.60325,-2.667 0,-1.68275 0.79375,-2.9845 0.79375,-1.3335 2.19075,-2.0955 1.397,-0.79375 3.20675,-0.79375 1.3335,0 2.413,0.4445 1.11125,0.41275 1.93675,1.11125 0.85725,0.6985 1.42875,1.5875 l -2.06375,1.87325 q -0.73025,-1.016 -1.61925,-1.61925 -0.85725,-0.635 -2.0955,-0.635 -1.42875,0 -2.38125,0.85725 -0.9525,0.85725 -0.9525,2.2225 0,1.143 0.47625,1.93675 0.47625,0.79375 1.42875,1.8415 l 11.71575,12.7635 z m -7.90575,0.3175 q -2.19075,0 -3.84175,-0.85725 -1.651,-0.85725 -2.57175,-2.3495 -0.889,-1.524 -0.889,-3.46075 0,-2.00025 1.0795,-3.6195 1.0795,-1.61925 3.14325,-2.57175 l 1.36525,1.778 q -1.27,0.635 -2.00025,1.74625 -0.73025,1.0795 -0.73025,2.6035 0,1.23825 0.5715,2.12725 0.5715,0.889 1.5875,1.397 1.04775,0.47625 2.38125,0.47625 1.68275,0 2.8575,-0.6985 1.17475,-0.6985 1.778,-1.778 l 1.87325,2.19075 q -0.635,0.85725 -1.68275,1.55575 -1.016,0.66675 -2.286,1.0795 -1.23825,0.381 -2.63525,0.381 z m 19.78026,-0.3175 V 6.44329 h 2.9845 v 22.0345 z m 2.032,-9.68375 v -2.7305 h 11.4935 v 2.7305 z m 0,-9.62025 v -2.7305 h 12.03325 v 2.7305 z m 15.4305,19.304 V 5.80829 h 2.8575 v 22.6695 z m 12.00151,0.127 -6.5405,-15.20825 h 3.175 l 4.85775,11.90625 h -1.016 l 5.11175,-11.90625 h 3.175 l -7.0485,15.20825 z m -4.318,6.19125 4.445,-9.11225 1.5875,2.921 -2.8575,6.19125 z"/><path d="m 15.345301,26.09821 19.937695,-5.264443 q 0.84007,-0.224019 1.2601,-1.036088 0.42004,-0.812069 0.19602,-1.65214 -0.22402,-0.840071 -0.98008,-1.260107 -0.75607,-0.420036 -1.59614,-0.196017 l -5.488464,1.456124 -8.96076,-8.400713 -3.136266,0.784067 5.376456,9.408798 -5.376456,1.344114 -2.800237,-2.128181 -2.128181,0.560048 z m 24.978115,9.74483 H 4.48038 q -1.848157,0 -3.164268,-1.31611 Q 0,33.21082 0,31.36266 V 22.4019 q 1.848157,0 3.164268,-1.316112 1.316112,-1.316111 1.316112,-3.164268 0,-1.848157 -1.316112,-3.164268 Q 1.848157,13.44114 0,13.44114 V 4.48038 Q 0,2.632223 1.316112,1.316112 2.632223,0 4.48038,0 h 35.843036 q 1.84816,0 3.16427,1.316112 1.31611,1.316111 1.31611,3.164268 v 26.88228 q 0,1.84816 -1.31611,3.16427 -1.31611,1.31611 -3.16427,1.31611 z m 0,-4.48038 V 4.48038 H 4.48038 v 5.712484 q 2.072176,1.232105 3.276278,3.276278 1.204102,2.044174 1.204102,4.452378 0,2.408204 -1.204102,4.452378 -1.204102,2.044173 -3.276278,3.276282 v 5.71248 z M 22.4019,17.92152 Z" /></svg>
