<svg viewBox="0 0 32 32" xmlns="http://www.w3.org/2000/svg">
  <path
    fill="#e1473d"
    d="M23.4778442,5H2.1287231C1.5053101,5,1,5.5053101,1,6.1287231v14.1079712 c0,0.6234131,0.5053101,1.1287842,1.1287231,1.1287842h21.3491211c0.6234131,0,1.1287231-0.5053711,1.1287231-1.1287842V6.1287231 C24.6065674,5.5053101,24.1012573,5,23.4778442,5z M13.8037109,17.3242188v0.6958008c0,0.5522461-0.4472656,1-1,1s-1-0.4477539-1-1 v-0.5647583c-0.3145142-0.1089478-0.6025391-0.2747192-0.8408203-0.5026245 c-0.3378906-0.3232422-0.7402344-0.9101563-0.7402344-1.8745117c0-0.5522461,0.4472656-1,1-1s1,0.4477539,1,1 c0,0.4575195,0.1972656,0.5205078,0.4091797,0.5205078c0.2089844,0,0.7519531-0.1391602,0.7519531-0.7749023 c0-0.4746094-0.2705078-0.6835938-1.203125-1.1552734c-0.8173828-0.4140625-1.9365234-0.9804688-1.9365234-2.324707 c0-1.1876221,0.5812378-2.0688477,1.5595703-2.4172363V8.3452148c0-0.5522461,0.4472656-1,1-1s1,0.4477539,1,1v0.663269 c0.6401367,0.2779541,1.1317749,0.7393188,1.3916016,1.1004028c0.3222656,0.4482422,0.2207031,1.0732422-0.2275391,1.3959961 c-0.4462891,0.3208008-1.0654297,0.222168-1.3896484-0.2192383c-0.0205078-0.0273438-0.5029297-0.637207-1.0527344-0.4990234 c-0.1113281,0.027832-0.28125,0.0703125-0.28125,0.5571289c0.0634766,0.1469727,0.5498047,0.3930664,0.8398438,0.5400391 C14,12.347168,15.3837891,13.0478516,15.3837891,14.8237305C15.3837891,16.0462646,14.6860962,16.9124146,13.8037109,17.3242188z"
  />
  <path
    fill="#bdd0fb"
    d="M29.8712769,10.6344604h-4.2648315v9.602356c0,1.1738281-0.9550781,2.1289063-2.1289063,2.1289063H7.3934326 v3.5054932C7.3934326,26.4946289,7.8987427,27,8.5221558,27h21.3491211C30.4946899,27,31,26.4946289,31,25.8712158V11.7631836 C31,11.1398315,30.4946899,10.6344604,29.8712769,10.6344604z"
  />
</svg>
