<svg viewBox="0 0 32 32" xmlns="http://www.w3.org/2000/svg">
  <path
    fill="#bdd0fb"
    d="M6.91291,4.3709016h19.414959V3.6106558C26.3278694,2.1688333,25.1590347,1,23.7172127,1H5.3709016C3.5092294,1,2,2.5091734,2,4.3709016C2,6.232574,3.5092294,7.7418032,5.3709016,7.7418032h0.3012295V5.6116805C5.6721311,4.9264054,6.2276349,4.3709016,6.91291,4.3709016z"
  />
  <path
    fill="#e1473d"
    d="M27.759222,5.3709016H7.7489753c-0.6852746,0-1.2407784,0.5555038-1.2407784,1.2407789v2.1301227H29V6.6116805C29,5.9264054,28.4444962,5.3709016,27.759222,5.3709016z"
  />
  <path
    fill="#1c468a"
    d="M20.5614624,18.2622681H30v-7.3203735c0-0.6627808-0.5372925-1.2001343-1.2001343-1.2001343H5.3709106C3.5092163,9.7417603,2,8.2325439,2,6.3709106v23.079895C2,30.3063965,2.6936035,31,3.5491943,31h23.8401489C28.8311768,31,30,29.8311768,30,28.3893433V23.942627h-9.4385376c-1.5685425,0-2.8401489-1.2716064-2.8401489-2.84021C17.7213135,19.5338745,18.9929199,18.2622681,20.5614624,18.2622681z"
  />
</svg>
