<svg xmlns="http://www.w3.org/2000/svg" x="0px" y="0px" viewBox="0 0 3710 3710">
  <g id="Background">
    <g>
      <g>
        <rect style="fill: #ffffff" width="3710" height="3710" />
      </g>
    </g>
  </g>
  <g id="Illustration">
    <g>
      <linearGradient id="SVGID_1_" gradientUnits="userSpaceOnUse" x1="3629.1711" y1="4040.1624" x2="1137.1265" y2="945.1993">
        <stop offset="0" style="stop-color: #dae3fe" />
        <stop offset="1" style="stop-color: #e9effd" />
      </linearGradient>
      <path
        style="fill: url(#SVGID_1_)"
        d="M2925.789,2833.907c-57.542,60.577-111.987,99.643-155.004,130.508
			c-505.648,362.808-1103.964,257.052-1231.124,231.224c-187.774-38.138-550.737-111.858-813.153-420.453
			c-397.013-466.879-335.192-1202.435-27.242-1687.985c56.329-88.815,337.118-535.363,941.879-614.416
			c365.995-47.842,862.822-10.053,1171.777,248.79C3461.447,1264.909,3361.84,2374.846,2925.789,2833.907z"
      />
      <g>
        <path
          style="fill: #91b3fa"
          d="M464.139,497.086c-2.61-11.112,13.021-18.498,22.592-10.736
				c97.197,78.816,330.732,314.837,272.53,727.301c-73.022,517.497,51.818,706.327,207.214,821.51
				c0,0-213.41-54.166-347.677-245.775C289.142,1318.942,510.553,694.66,464.139,497.086z"
        />
        <path
          style="fill: #ffffff"
          d="M538.107,658.721c12.159,57.61,22.997,115.397,31.371,173.443
				c8.726,57.998,15.413,116.198,19.989,174.494c4.316,58.307,7.366,116.674,7.539,175.067c0.477,58.389-1.951,116.73-4.625,175.299
				c-2.294,58.547-4.991,117.517-0.705,176.904c4.215,59.266,16.69,119.05,41.446,175.094c6.188,13.967,12.696,27.892,20.089,41.346
				c7.107,13.579,14.912,26.889,22.99,40.073c16.312,26.305,34.673,51.721,55.135,75.844
				c41.072,48.164,90.606,90.889,145.175,127.049c5.744,3.806,13.972,2.87,18.38-2.089c4.328-4.869,3.361-11.809-2.113-15.662
				l-0.039-0.027c-12.984-9.119-25.831-18.356-38.158-28.055c-6.254-4.766-12.25-9.76-18.353-14.656
				c-5.88-5.089-11.992-9.982-17.683-15.223c-23.171-20.623-44.638-42.627-64.113-65.892
				c-39.174-46.314-70.533-97.924-94.292-151.427c-11.533-26.876-20.753-54.438-27.484-82.518
				c-6.707-28.087-10.926-56.662-13.259-85.467c-4.673-57.642-2.562-116.028-0.755-174.586
				c1.719-58.573,2.981-117.443,1.435-176.267c-0.681-29.409-1.974-58.805-3.875-88.166c-0.853-14.684-2.035-29.352-3.186-44.019
				c-1.314-14.658-2.722-29.307-4.268-43.944c-6.31-58.539-14.685-116.883-25.182-174.917
				c-10.82-57.99-23.418-115.713-38.571-172.919c-0.434-1.636-2.319-2.657-4.212-2.283
				C538.944,655.58,537.776,657.135,538.107,658.721z"
        />
      </g>
      <g>
        <g>
          <path
            style="fill: #bdd0fb"
            d="M715.924,1735.76c-11.918,12.645-32.876,9.008-40.045-6.819
					c-39.558-87.332-129.074-344.365,18.765-640.481c124.844-250.057,168.777-397.511,184.082-465.833
					c3.237-14.447,23.035-16.365,29.011-2.82C973.67,769.252,1147.762,1277.583,715.924,1735.76z"
          />
          <path
            style="fill: #ffffff"
            d="M694.276,1726.545c-0.424,0.076-0.86,0.112-1.307,0.105c-3.746-0.057-6.736-3.141-6.679-6.886
					c0.065-4.247,8.33-428.738,166.211-784.266c1.52-3.421,5.528-4.965,8.955-3.447c3.424,1.522,4.967,5.529,3.447,8.955
					c-156.733,352.94-164.982,774.748-165.047,778.967C699.806,1723.271,697.408,1725.984,694.276,1726.545z"
          />
        </g>
      </g>
      <g>
        <g>
          <linearGradient
            id="SVGID_00000155122841790669437070000014805610551934337923_"
            gradientUnits="userSpaceOnUse"
            x1="1808.4651"
            y1="1715.9102"
            x2="1268.2651"
            y2="482.3181"
          >
            <stop offset="0" style="stop-color: #4f52ff" />
            <stop offset="1" style="stop-color: #4042e2" />
          </linearGradient>
          <path
            style="fill: url(#SVGID_00000155122841790669437070000014805610551934337923_)"
            d="M3184.242,1896.717
					c-29.695,676.42-645.653,1198.782-1375.781,1166.729c-730.129-32.053-1297.942-606.382-1268.247-1282.802
					c29.695-676.42,645.653-1198.781,1375.781-1166.729C2646.123,645.968,3213.937,1220.298,3184.242,1896.717z"
          />
          <g style="opacity: 0.31">
            <ellipse style="fill: #7d97f4" cx="1790.608" cy="1750.231" rx="1038.37" ry="980.929" />
          </g>
          <g style="opacity: 0.68">
            <path
              style="fill: #ffffff"
              d="M2201.24,1844.601c-0.104,108.173-4.06,216.36-12.466,324.238
						c-8.613,107.849-21.801,215.389-40.937,321.954c-9.675,53.256-20.887,106.261-34.243,158.762
						c-13.396,52.48-28.858,104.508-47.786,155.381c-19.088,50.742-41.235,100.758-71.281,146.493
						c-15.142,22.7-32.316,44.462-53.534,62.378c-10.606,8.899-22.26,16.799-35.088,22.589c-12.8,5.75-26.803,9.393-41.013,9.641
						c-14.191,0.411-28.405-2.353-41.461-7.61c-13.107-5.2-25.046-12.745-35.909-21.352c-21.726-17.361-39.28-38.883-54.693-61.407
						c-30.578-45.412-53.025-95.326-72.312-145.987c-19.166-50.788-34.779-102.773-48.291-155.221
						c-13.488-52.469-24.811-105.448-34.564-158.689c-19.468-106.504-32.759-214.03-41.744-321.854
						c-8.923-107.84-13.415-216.027-14.018-324.233c-0.283-54.096,1.266-108.18,3.213-162.23
						c2.06-54.052,5.073-108.064,9.087-162.005c8.071-107.868,20.092-215.494,37.927-322.233
						c8.949-53.356,19.378-106.488,31.916-159.151c12.569-52.644,27.171-104.872,45.276-155.971
						c18.292-50.943,39.615-101.262,69.29-147.021c14.931-22.707,32.093-44.385,53.476-61.746
						c10.69-8.605,22.47-16.094,35.381-21.165c12.858-5.14,26.814-7.734,40.691-7.202c13.885,0.398,27.576,3.841,40.203,9.398
						c12.645,5.577,24.26,13.165,34.922,21.764c21.325,17.306,38.967,38.459,54.619,60.669
						c31.117,44.728,54.577,94.046,74.902,144.224c20.177,50.317,36.842,101.935,51.361,154.084
						c14.469,52.175,26.726,104.93,37.338,157.998c21.034,106.178,35.697,213.547,45.396,321.313
						C2196.368,1628.207,2200.959,1736.403,2201.24,1844.601z M2183.323,1844.601c0.225-107.711-3.843-215.452-12.766-322.793
						c-8.779-107.339-22.078-214.372-41.938-320.22c-9.912-52.919-21.461-105.538-35.209-157.574
						c-13.797-52.009-29.728-103.488-49.129-153.634c-19.539-50.002-42.206-99.129-72.285-143.5
						c-15.119-22.03-32.176-42.95-52.633-59.965c-10.225-8.455-21.323-15.884-33.329-21.357
						c-11.994-5.402-24.908-8.957-38.044-9.299c-13.126-0.411-26.231,2.24-38.371,7.246c-12.185,4.956-23.373,12.246-33.576,20.666
						c-20.414,16.984-36.965,38.356-51.347,60.836c-28.609,45.303-49.151,95.389-66.662,146.124
						c-17.337,50.897-31.214,102.968-43.07,155.464c-11.825,52.515-21.555,105.506-29.813,158.721
						c-32.675,213.027-43.368,428.971-42.686,644.344c-0.342,107.706,3.212,215.445,11.166,322.865
						c8.019,107.401,20.328,214.534,38.774,320.611c9.243,53.028,20.045,105.785,32.989,157.995
						c12.966,52.191,28.015,103.893,46.541,154.29c18.626,50.261,40.412,99.707,69.842,144.217
						c14.809,22.069,31.66,42.99,52.056,59.56c10.191,8.222,21.276,15.332,33.248,20.197c11.936,4.875,24.73,7.594,37.552,7.156
						c12.818-0.335,25.447-3.728,37.182-9.118c11.751-5.427,22.602-12.895,32.572-21.415c19.957-17.144,36.448-38.332,50.997-60.591
						c28.914-44.865,50.386-94.42,68.802-144.767c18.275-50.49,33.157-102.235,45.99-154.459
						c12.796-52.247,23.468-105.027,32.619-158.067c18.332-106.097,30.486-213.242,38.575-320.641
						C2179.584,2060.09,2183.373,1952.338,2183.323,1844.601z"
            />
            <path
              style="fill: #ffffff"
              d="M2746.843,1844.601c-0.775,139.338-18.71,278.731-56.037,413.094
						c-38.005,134.049-95.299,262.983-173.028,378.731c-77.612,115.498-176.471,217.99-294.658,292.324
						c-59.061,36.98-122.852,66.582-189.626,86.659c-66.736,20.127-136.402,30.621-206.126,30.677
						c-69.724,0.014-139.412-10.408-206.188-30.471c-66.814-20.017-130.663-49.565-189.791-86.506
						c-118.33-74.237-217.385-176.676-295.193-292.176c-77.904-115.763-135.333-244.762-173.536-378.883
						c-18.791-67.188-32.775-135.702-42.026-204.831c-9.2-69.143-13.824-138.866-14.148-208.617
						c0.372-69.748,5.045-139.467,14.292-208.594c9.301-69.118,23.344-137.609,42.185-204.766
						c38.308-134.063,95.838-262.963,173.798-378.594c77.848-115.371,176.88-217.69,295.156-291.714
						c59.109-36.832,122.941-66.135,189.625-86.145c66.641-20.095,136.204-30.57,205.825-30.626
						c69.621,0.12,139.164,10.66,205.768,30.815c66.647,20.068,130.417,49.436,189.457,86.312
						c118.131,74.124,216.968,176.493,294.62,291.864c77.785,115.613,135.182,244.45,173.289,378.439
						C2727.921,1565.899,2745.963,1705.266,2746.843,1844.601z M2726.304,1844.601c-0.163-137.567-17.26-275.286-53.521-408.092
						c-36.435-132.607-91.293-260.658-166.886-375.828c-37.775-57.526-80.686-111.753-128.755-161.053
						c-48.089-49.219-101.205-93.769-159.322-130.786c-58.188-36.802-121.023-66.441-186.922-86.478
						c-65.866-20.047-134.634-30.589-203.531-30.825c-68.897,0.3-137.646,10.907-203.475,31.012
						c-65.862,20.098-128.635,49.804-186.753,86.65c-58.046,37.063-111.073,81.654-159.072,130.897
						c-47.978,49.325-90.792,103.564-128.468,161.09c-75.417,115.153-130.143,243.14-166.376,375.675
						c-18.064,66.339-31.121,133.982-39.982,202.124c-8.884,68.149-13.261,136.871-13.403,205.614
						c0.19,68.745,4.617,137.463,13.548,205.599c8.91,68.128,22.026,135.75,40.14,202.059
						c36.339,132.473,91.166,260.362,166.639,375.381c37.693,57.466,80.515,111.638,128.487,160.889
						c47.999,49.159,100.984,93.706,159.017,130.635c58.099,36.739,120.855,66.201,186.587,86.289
						c65.695,20.137,134.317,30.795,203.112,31.165c68.794-0.298,137.439-10.887,203.173-30.961
						c65.771-20.026,128.586-49.434,186.752-86.132c58.101-36.89,111.176-81.391,159.265-130.526
						c48.063-49.226,90.981-103.386,128.773-160.852c75.649-115.038,130.61-242.99,167.146-375.537
						C2708.832,2119.863,2726.036,1982.169,2726.304,1844.601z"
            />
            <path
              style="fill: #ffffff"
              d="M755.694,1369.227l275.801-2.494l275.801-1.412c91.933-0.603,183.867-0.539,275.8-0.723
						l275.801-0.418l551.602,1.255l275.801,1.544l275.801,2.693c0.501,0.005,0.903,0.416,0.897,0.916
						c-0.005,0.495-0.406,0.892-0.897,0.899l-275.801,2.693l-275.801,1.544l-551.602,1.255l-275.801-0.418
						c-91.933-0.185-183.867-0.12-275.8-0.723l-275.801-1.412l-275.801-2.494c-0.746-0.007-1.345-0.617-1.338-1.364
						C754.362,1369.828,754.96,1369.234,755.694,1369.227z"
            />
            <path
              style="fill: #ffffff"
              d="M1075.655,907.286c65.27-1.158,130.54-1.655,195.81-2.496l195.811-1.412
						c65.27-0.604,130.54-0.539,195.81-0.724l195.81-0.416l195.811,0.474c65.27,0.287,130.54,0.13,195.81,0.782l195.811,1.542
						c65.27,0.917,130.54,1.454,195.81,2.695c0.5,0.009,0.899,0.423,0.89,0.922c-0.01,0.49-0.406,0.88-0.89,0.89
						c-65.27,1.241-130.541,1.778-195.81,2.693l-195.811,1.544c-65.27,0.649-130.54,0.495-195.81,0.782l-195.811,0.474
						l-195.81-0.416c-65.27-0.187-130.54-0.123-195.81-0.724l-195.811-1.414c-65.27-0.839-130.54-1.336-195.81-2.494
						c-0.746-0.014-1.34-0.629-1.326-1.375C1074.342,907.882,1074.932,907.3,1075.655,907.286z"
            />
            <path
              style="fill: #ffffff"
              d="M659.85,1831.17l299.762-2.494l299.762-1.414l599.523-1.14l599.524,1.255l299.762,1.544
						l299.761,2.693c0.501,0.005,0.903,0.414,0.899,0.916c-0.004,0.494-0.406,0.892-0.899,0.897l-299.761,2.695l-299.762,1.542
						l-599.524,1.255l-599.523-1.14l-299.762-1.412l-299.762-2.496c-0.745-0.005-1.345-0.615-1.339-1.361
						C658.517,1831.771,659.115,1831.177,659.85,1831.17z"
            />
            <path
              style="fill: #ffffff"
              d="M755.694,2293.113l275.801-2.494l275.801-1.414c91.933-0.603,183.867-0.536,275.8-0.723
						l275.801-0.416l551.602,1.255l275.801,1.544l275.801,2.692c0.501,0.005,0.903,0.414,0.897,0.916
						c-0.005,0.495-0.406,0.892-0.897,0.897l-275.801,2.693l-275.801,1.544l-551.602,1.255l-275.801-0.416
						c-91.933-0.187-183.867-0.123-275.8-0.723l-275.801-1.415l-275.801-2.494c-0.746-0.007-1.345-0.617-1.338-1.361
						C754.362,2293.714,754.96,2293.12,755.694,2293.113z"
            />
            <path
              style="fill: #ffffff"
              d="M2681.602,2761.137H1115.121c-2.614,0-4.734-2.117-4.734-4.734c0-2.616,2.12-4.734,4.734-4.734
						h1566.481c2.614,0,4.734,2.117,4.734,4.734C2686.336,2759.02,2684.216,2761.137,2681.602,2761.137z"
            />
          </g>
        </g>
        <path
          style="fill: #7d97f4"
          d="M2378.661,834.163c22.279-71.675-41.798-190.663-209.782-127.556
				c2.343-35.468-166.776-178.827-296.934,31.862c-4.692-57.881-147.265-55.97-189.398,32.503
				c-47.348-32.639-193.156,59.492-32.481,110.161c205.189,64.707,687.579,147.322,797.391,37.476
				C2557.269,808.764,2378.661,834.163,2378.661,834.163z"
        />
        <path
          style="fill: #7d97f4"
          d="M930.554,1842.508c-12.713-108.405,110.647-261.388,333.929-126.333
				c6.119-51.326,286.139-211.105,415.951,124.814c22.159-81.487,225.451-40.693,262.062,97.024
				c76.396-34.016,260.228,136.607,17.022,166.143c-310.586,37.719-1022.201,27.037-1149.849-159.299
				C682.019,1758.52,930.554,1842.508,930.554,1842.508z"
        />
        <g>
          <linearGradient
            id="SVGID_00000148620334241906366260000009119812499001521848_"
            gradientUnits="userSpaceOnUse"
            x1="1994.7247"
            y1="821.311"
            x2="1872.6136"
            y2="1160.5082"
          >
            <stop offset="0" style="stop-color: #ff928e" />
            <stop offset="1" style="stop-color: #fe7062" />
          </linearGradient>

          <circle style="fill: url(#SVGID_00000148620334241906366260000009119812499001521848_)" cx="1384.551" cy="2516.236" r="57.235" />

          <linearGradient
            id="SVGID_00000131332677085274351940000001592233072986038937_"
            gradientUnits="userSpaceOnUse"
            x1="2595.072"
            y1="1037.4344"
            x2="2472.9609"
            y2="1376.6315"
          >
            <stop offset="0" style="stop-color: #ff928e" />
            <stop offset="1" style="stop-color: #fe7062" />
          </linearGradient>

          <circle style="fill: url(#SVGID_00000131332677085274351940000001592233072986038937_)" cx="2161.311" cy="2242.326" r="57.235" />

          <linearGradient
            id="SVGID_00000054252540197826025710000007801768138083078308_"
            gradientUnits="userSpaceOnUse"
            x1="2133.1213"
            y1="871.1342"
            x2="2011.0101"
            y2="1210.3312"
          >
            <stop offset="0" style="stop-color: #ff928e" />
            <stop offset="1" style="stop-color: #fe7062" />
          </linearGradient>

          <circle style="fill: url(#SVGID_00000054252540197826025710000007801768138083078308_)" cx="1711.608" cy="2042.004" r="57.235" />

          <linearGradient
            id="SVGID_00000044872228241184281700000008579357564611448737_"
            gradientUnits="userSpaceOnUse"
            x1="2805.4187"
            y1="1113.1577"
            x2="2683.3076"
            y2="1452.3547"
          >
            <stop offset="0" style="stop-color: #ff928e" />
            <stop offset="1" style="stop-color: #fe7062" />
          </linearGradient>

          <circle style="fill: url(#SVGID_00000044872228241184281700000008579357564611448737_)" cx="2189.928" cy="2822.852" r="57.235" />
          <path
            style="fill: #ffffff"
            d="M1709.364,2666.753c-89.769,0-179.652-30.402-253.539-86.95l4.97-6.492
					c88.302,67.579,199.875,97.059,306.098,80.946c106.268-16.145,206.646-77.883,275.399-169.381
					c30.155-40.132,52.376-82.962,66.052-127.297l7.813,2.412c-13.954,45.238-36.606,88.906-67.33,129.797
					c-70.027,93.194-172.339,156.09-280.705,172.551C1748.655,2665.296,1729.012,2666.753,1709.364,2666.753z"
          />
          <path
            style="fill: #ffffff"
            d="M2415.18,2517.597c-47.385,0-87.3-11.997-119.304-35.964
					c-80.489-60.269-81.419-176.815-81.419-177.985h8.177c0,1.13,0.974,113.699,78.189,171.473
					c52.374,39.185,127.461,44.83,223.189,16.748l2.3,7.849C2485.66,2511.641,2448.565,2517.597,2415.18,2517.597z"
          />
          <path
            style="fill: #ffffff"
            d="M1498.42,2522.795c-6.314,0-11.54-2.22-15.153-6.679l6.352-5.15
					c7.162,8.847,24.641-0.842,28.075-2.87c75.925-44.895,137.556-104.221,178.228-171.561
					c44.946-74.422,64.391-159.104,54.754-238.453l8.116-0.982c9.857,81.149-9.985,167.684-55.871,243.659
					c-41.369,68.497-103.98,128.795-181.065,174.372C1513.226,2520.236,1505.197,2522.795,1498.42,2522.795z"
          />
          <path
            style="fill: #ffffff"
            d="M2255.455,2752.997l-7.673-2.827c9.899-26.841,29.486-48.831,49.176-68.597
					c51.168-51.37,109.004-95.706,171.898-131.769c23.821-13.662,49.807-26.952,78.437-31.655l1.325,8.064
					c-27.346,4.495-52.54,17.403-75.694,30.681c-62.266,35.704-119.518,79.596-170.174,130.452
					C2283.713,2706.453,2264.809,2727.633,2255.455,2752.997z"
          />
        </g>
      </g>
      <g>
        <path
          style="fill: #91b3fa"
          d="M2034.375,1226.132l-135.258-83.942c-2.783-1.727-6.122-2.324-9.331-1.668l-176.026,35.987
				c-4.743,0.969-8.536,4.527-9.806,9.199c-1.271,4.672,0.197,9.66,3.796,12.899l105.405,94.857L2034.375,1226.132z"
        />
        <path
          style="fill: #bdd0fb"
          d="M862.125,1381.468c0,0,1640.505-292.951,1704.499-272.431
				c63.994,20.519,178.371,88.481,212.1,88.629c33.728,0.149,151.687,20.906,120.96,105.092
				c-30.727,84.186-1391.126,341.271-1549.41,286.607c-158.283-54.664-559.201-157.618-559.201-157.618
				S754.225,1374.246,862.125,1381.468z"
        />

        <linearGradient
          id="SVGID_00000118380872638437914590000011351037970066665867_"
          gradientUnits="userSpaceOnUse"
          x1="1754.7512"
          y1="92.2872"
          x2="1530.881"
          y2="431.4845"
        >
          <stop offset="0" style="stop-color: #09005d" />
          <stop offset="1" style="stop-color: #1a0f91" />
        </linearGradient>
        <path
          style="fill: url(#SVGID_00000118380872638437914590000011351037970066665867_)"
          d="M1336.973,1302.716l-235.877-131.425
				c-14.79-8.241-26.971-20.466-35.157-35.286l-95.287-172.506c-7.55-13.669-23.151-20.828-38.431-17.615
				c-48.924,10.29-150.428,33.014-150.924,44.53c-0.655,15.175,48.559,396.218,48.559,396.218L1336.973,1302.716z"
        />

        <linearGradient
          id="SVGID_00000024717687148697056220000017937371454724796828_"
          gradientUnits="userSpaceOnUse"
          x1="1021.5532"
          y1="1414.5835"
          x2="868.9216"
          y2="1699.4956"
        >
          <stop offset="0" style="stop-color: #09005d" />
          <stop offset="1" style="stop-color: #1a0f91" />
        </linearGradient>
        <path
          style="fill: url(#SVGID_00000024717687148697056220000017937371454724796828_)"
          d="M877.399,1436.056l-19.711,80.316
				c-3.326,13.552-0.253,27.346,8.334,38.344c8.587,10.997,21.743,16.918,35.696,16.98l83.37,0.367
				c13.166,0.058,25.709-5.05,34.401-14.938l149.031-169.267L877.399,1436.056z"
        />

        <linearGradient
          id="SVGID_00000047765102239326061920000012902609356494275254_"
          gradientUnits="userSpaceOnUse"
          x1="1885.0463"
          y1="1598.2633"
          x2="1935.9233"
          y2="1832.2977"
        >
          <stop offset="0" style="stop-color: #09005d" />
          <stop offset="1" style="stop-color: #1a0f91" />
        </linearGradient>
        <path
          style="fill: url(#SVGID_00000047765102239326061920000012902609356494275254_)"
          d="M1736.292,1705.457
				c0,0,50.318,62.198,132.531,62.56c82.212,0.363,183.496-21.958,202.597-50.964c19.1-29.007,60.512-243.718-106.573-213.53
				C1797.761,1533.712,1602.552,1630.242,1736.292,1705.457z"
        />
        <path
          style="fill: #91b3fa"
          d="M1643.675,1483.129l389.863-67.271l-328.576,419.337c-4.607,5.879-11.462,9.563-18.907,10.161
				l-233.471,18.749c-10.106,0.811-19.802-4.162-25.037-12.844c-5.236-8.682-5.111-19.578,0.322-28.138L1643.675,1483.129z"
        />
        <g>
          <path
            style="fill: #7d97f4"
            d="M2049.961,1722.89c1.001,0.214,1.975,0.259,2.927,0.136c5.215-0.674,10.455-6.062,15.581-16.016
					c16.481-32.006,27.09-100.604-0.915-152.894l0,0c-8.301-15.486-23.696-25.456-41.207-26.737
					c-14.377-1.022-32.748,3.205-38.639,29.171c-9.231,40.703,29.582,134.664,51.645,158.927
					C2043.234,1719.748,2046.734,1722.2,2049.961,1722.89z M2031.724,1535.306c12.474,2.667,23.473,10.795,29.562,22.168l0,0
					c26.5,49.47,16.18,116.533,0.864,146.282c-4.438,8.625-8.252,11.976-10.167,12.219c-0.25,0.039-2.456,0.135-7.374-5.281
					c-22.947-25.24-58.124-116.621-49.968-152.578c3.886-17.133,14.092-24.866,31.198-23.65
					C2027.828,1534.608,2029.797,1534.894,2031.724,1535.306z"
          />
        </g>

        <linearGradient
          id="SVGID_00000039135983817922920550000016855112302577771665_"
          gradientUnits="userSpaceOnUse"
          x1="907.3799"
          y1="1146.1013"
          x2="1355.1208"
          y2="779.7679"
        >
          <stop offset="0" style="stop-color: #09005d" />
          <stop offset="1" style="stop-color: #1a0f91" />
        </linearGradient>
        <polygon
          style="fill: url(#SVGID_00000039135983817922920550000016855112302577771665_)"
          points="790.428,1080.817
				830.902,1080.995 867.706,1339.534 825.121,1349.289 			"
        />
        <g>
          <g>
            <linearGradient
              id="SVGID_00000129890097236024397780000004631349229920719506_"
              gradientUnits="userSpaceOnUse"
              x1="2919.3235"
              y1="996.8685"
              x2="2368.0222"
              y2="1231.6819"
              gradientTransform="matrix(1 0.0045 -0.0045 1 -140.6322 -152.249)"
            >
              <stop offset="0" style="stop-color: #09005d" />
              <stop offset="1" style="stop-color: #1a0f91" />
            </linearGradient>
            <path
              style="fill: url(#SVGID_00000129890097236024397780000004631349229920719506_)"
              d="M1454.333,1394.489
						c0.059-13.315,10.9-24.061,24.214-24.001l1.533,0.006c13.314,0.058,24.06,10.9,24.001,24.214l-0.069,15.747
						c-0.059,13.314-10.9,24.06-24.214,24.001l-1.533-0.006c-13.314-0.058-24.06-10.9-24.001-24.214L1454.333,1394.489z"
            />

            <linearGradient
              id="SVGID_00000025417753257229700420000002409013171247473549_"
              gradientUnits="userSpaceOnUse"
              x1="2928.4282"
              y1="1025.2266"
              x2="2377.1223"
              y2="1260.0419"
              gradientTransform="matrix(1 0.0045 -0.0045 1 -140.6322 -152.249)"
            >
              <stop offset="0" style="stop-color: #09005d" />
              <stop offset="1" style="stop-color: #1a0f91" />
            </linearGradient>
            <path
              style="fill: url(#SVGID_00000025417753257229700420000002409013171247473549_)"
              d="M1546.756,1387.79
						c0.058-13.314,10.9-24.06,24.214-24.001l1.533,0.007c13.315,0.059,24.061,10.9,24.002,24.214l-0.07,15.747
						c-0.058,13.314-10.9,24.06-24.214,24.001l-1.533-0.007c-13.314-0.059-24.06-10.9-24.001-24.214L1546.756,1387.79z"
            />

            <linearGradient
              id="SVGID_00000176759687238230842450000002334658909180972477_"
              gradientUnits="userSpaceOnUse"
              x1="2937.52"
              y1="1039.3751"
              x2="2386.2141"
              y2="1274.1904"
              gradientTransform="matrix(1 0.0045 -0.0045 1 -140.6322 -152.249)"
            >
              <stop offset="0" style="stop-color: #09005d" />
              <stop offset="1" style="stop-color: #1a0f91" />
            </linearGradient>
            <path
              style="fill: url(#SVGID_00000176759687238230842450000002334658909180972477_)"
              d="M1639.239,1366.876
						c0.059-13.315,10.9-24.061,24.214-24.002l1.533,0.007c13.314,0.058,24.06,10.9,24.001,24.214l-0.069,15.747
						c-0.059,13.314-10.9,24.06-24.215,24.001l-1.533-0.006c-13.315-0.059-24.061-10.9-24.001-24.214L1639.239,1366.876z"
            />

            <linearGradient
              id="SVGID_00000077325485285940271760000003667159618404325273_"
              gradientUnits="userSpaceOnUse"
              x1="2939.509"
              y1="1060.6304"
              x2="2388.2014"
              y2="1295.4464"
              gradientTransform="matrix(1 0.0045 -0.0045 1 -140.6322 -152.249)"
            >
              <stop offset="0" style="stop-color: #09005d" />
              <stop offset="1" style="stop-color: #1a0f91" />
            </linearGradient>
            <path
              style="fill: url(#SVGID_00000077325485285940271760000003667159618404325273_)"
              d="M1724.585,1353.039
						c0.059-13.315,10.9-24.061,24.214-24.002l1.533,0.007c13.315,0.059,24.061,10.9,24.002,24.214l-0.07,15.747
						c-0.058,13.314-10.9,24.06-24.214,24.001l-1.533-0.006c-13.315-0.059-24.061-10.9-24.002-24.215L1724.585,1353.039z"
            />

            <linearGradient
              id="SVGID_00000059990706303820300740000003051554027845426580_"
              gradientUnits="userSpaceOnUse"
              x1="2955.7061"
              y1="1081.8866"
              x2="2404.3999"
              y2="1316.702"
              gradientTransform="matrix(1 0.0045 -0.0045 1 -140.6322 -152.249)"
            >
              <stop offset="0" style="stop-color: #09005d" />
              <stop offset="1" style="stop-color: #1a0f91" />
            </linearGradient>
            <path
              style="fill: url(#SVGID_00000059990706303820300740000003051554027845426580_)"
              d="M1824.145,1339.264
						c0.059-13.315,10.9-24.061,24.214-24.002l1.533,0.007c13.314,0.058,24.06,10.9,24.001,24.214l-0.07,15.747
						c-0.058,13.314-10.9,24.06-24.214,24.001l-1.533-0.006c-13.315-0.059-24.061-10.901-24.002-24.215L1824.145,1339.264z"
            />

            <linearGradient
              id="SVGID_00000078044502654626246680000015960813924096872884_"
              gradientUnits="userSpaceOnUse"
              x1="2964.8"
              y1="1103.1418"
              x2="2413.4932"
              y2="1337.9576"
              gradientTransform="matrix(1 0.0045 -0.0045 1 -140.6322 -152.249)"
            >
              <stop offset="0" style="stop-color: #09005d" />
              <stop offset="1" style="stop-color: #1a0f91" />
            </linearGradient>
            <path
              style="fill: url(#SVGID_00000078044502654626246680000015960813924096872884_)"
              d="M1916.598,1325.457
						c0.059-13.315,10.9-24.061,24.214-24.001l1.533,0.007c13.315,0.059,24.061,10.9,24.002,24.215l-0.07,15.746
						c-0.058,13.314-10.9,24.061-24.214,24.002l-1.533-0.007c-13.315-0.059-24.061-10.9-24.002-24.215L1916.598,1325.457z"
            />

            <linearGradient
              id="SVGID_00000095303668679644993270000015871372266693800853_"
              gradientUnits="userSpaceOnUse"
              x1="2973.8872"
              y1="1117.293"
              x2="2422.5837"
              y2="1352.1073"
              gradientTransform="matrix(1 0.0045 -0.0045 1 -140.6322 -152.249)"
            >
              <stop offset="0" style="stop-color: #09005d" />
              <stop offset="1" style="stop-color: #1a0f91" />
            </linearGradient>
            <path
              style="fill: url(#SVGID_00000095303668679644993270000015871372266693800853_)"
              d="M2009.082,1304.543
						c0.058-13.314,10.9-24.06,24.214-24.001l1.533,0.006c13.314,0.059,24.06,10.9,24.001,24.214l-0.069,15.746
						c-0.059,13.315-10.9,24.061-24.214,24.002l-1.533-0.007c-13.314-0.058-24.06-10.9-24.001-24.214L2009.082,1304.543z"
            />

            <linearGradient
              id="SVGID_00000160148626742286221050000003263347871033978554_"
              gradientUnits="userSpaceOnUse"
              x1="2975.8772"
              y1="1145.6549"
              x2="2424.5713"
              y2="1380.4702"
              gradientTransform="matrix(1 0.0045 -0.0045 1 -140.6322 -152.249)"
            >
              <stop offset="0" style="stop-color: #09005d" />
              <stop offset="1" style="stop-color: #1a0f91" />
            </linearGradient>
            <path
              style="fill: url(#SVGID_00000160148626742286221050000003263347871033978554_)"
              d="M2094.397,1297.812
						c0.059-13.314,10.9-24.06,24.215-24.001l1.533,0.006c13.315,0.059,24.061,10.9,24.001,24.214l-0.069,15.746
						c-0.059,13.315-10.9,24.061-24.214,24.002l-1.533-0.007c-13.314-0.058-24.06-10.9-24.001-24.214L2094.397,1297.812z"
            />

            <linearGradient
              id="SVGID_00000118396176998517523160000001803235480238558594_"
              gradientUnits="userSpaceOnUse"
              x1="2984.9702"
              y1="1166.91"
              x2="2433.6641"
              y2="1401.7255"
              gradientTransform="matrix(1 0.0045 -0.0045 1 -140.6322 -152.249)"
            >
              <stop offset="0" style="stop-color: #09005d" />
              <stop offset="1" style="stop-color: #1a0f91" />
            </linearGradient>
            <path
              style="fill: url(#SVGID_00000118396176998517523160000001803235480238558594_)"
              d="M2186.85,1284.006
						c0.06-13.315,10.9-24.061,24.215-24.002l1.533,0.007c13.315,0.059,24.061,10.9,24.001,24.214l-0.069,15.747
						c-0.058,13.314-10.9,24.06-24.214,24.001l-1.533-0.007c-13.314-0.059-24.06-10.9-24.001-24.214L2186.85,1284.006z"
            />

            <linearGradient
              id="SVGID_00000024702746245609370630000004926835983821025443_"
              gradientUnits="userSpaceOnUse"
              x1="2994.063"
              y1="1181.0586"
              x2="2442.7561"
              y2="1415.8744"
              gradientTransform="matrix(1 0.0045 -0.0045 1 -140.6322 -152.249)"
            >
              <stop offset="0" style="stop-color: #09005d" />
              <stop offset="1" style="stop-color: #1a0f91" />
            </linearGradient>
            <path
              style="fill: url(#SVGID_00000024702746245609370630000004926835983821025443_)"
              d="M2279.334,1263.093
						c0.059-13.315,10.9-24.061,24.214-24.001l1.533,0.007c13.314,0.058,24.06,10.9,24.001,24.214l-0.07,15.746
						c-0.059,13.314-10.9,24.06-24.214,24.001l-1.533-0.006c-13.315-0.059-24.061-10.9-24.002-24.215L2279.334,1263.093z"
            />

            <linearGradient
              id="SVGID_00000156575893103577065010000016458579329738295698_"
              gradientUnits="userSpaceOnUse"
              x1="2996.0471"
              y1="1209.423"
              x2="2444.7463"
              y2="1444.2362"
              gradientTransform="matrix(1 0.0045 -0.0045 1 -140.6322 -152.249)"
            >
              <stop offset="0" style="stop-color: #09005d" />
              <stop offset="1" style="stop-color: #1a0f91" />
            </linearGradient>
            <path
              style="fill: url(#SVGID_00000156575893103577065010000016458579329738295698_)"
              d="M2364.649,1256.362
						c0.059-13.315,10.9-24.061,24.215-24.001l1.533,0.006c13.314,0.059,24.06,10.9,24.001,24.215l-0.069,15.746
						c-0.059,13.314-10.9,24.06-24.215,24.001l-1.533-0.006c-13.314-0.059-24.06-10.9-24.001-24.214L2364.649,1256.362z"
            />
          </g>

          <linearGradient
            id="SVGID_00000052825330142284455950000014764978801641228433_"
            gradientUnits="userSpaceOnUse"
            x1="3020.8777"
            y1="1241.446"
            x2="2461.689"
            y2="1479.6188"
            gradientTransform="matrix(1 0.0045 -0.0045 1 -140.6322 -152.249)"
          >
            <stop offset="0" style="stop-color: #09005d" />
            <stop offset="1" style="stop-color: #1a0f91" />
          </linearGradient>
          <path
            style="fill: url(#SVGID_00000052825330142284455950000014764978801641228433_)"
            d="M2680.896,1160.228l-162.302,44.301
					c-12.189,3.339-20.288,14.899-19.222,27.492c1.267,14.968,3.451,31.888,6.796,30.473c5.914-2.504,260.327-65.931,260.327-65.931
					L2680.896,1160.228z"
          />
        </g>
        <path
          style="fill: #7d97f4"
          d="M2139.191,1225.845c6.617-0.832,12.628-4.27,16.698-9.553l23.613-30.647
				c3.094-4.015-0.353-9.739-5.349-8.882c-6.001,1.028-9.071-1.054-15.856,1.941c-18.07,7.978-318.669,37.236-334.757,67.115
				c-4.966,9.223-2.34,14.982-2.34,14.982c1.511,3.313,4.623,5.243,7.344,6.391
				C1925.115,1254.649,2042.62,1238.387,2139.191,1225.845z"
        />
        <g>
          <polygon style="fill: #ffffff" points="2163.055,1180.293 1866.577,1228.131 1862.796,1197.735 2158.831,1149.311 				" />

          <linearGradient
            id="SVGID_00000001662111793261682350000012645091229347271573_"
            gradientUnits="userSpaceOnUse"
            x1="1677.2147"
            y1="1200.9745"
            x2="2208.8789"
            y2="1200.9745"
            gradientTransform="matrix(0.9788 -0.1496 0.1373 1.0007 -197.1661 313.1959)"
          >
            <stop offset="0" style="stop-color: #09005d" />
            <stop offset="1" style="stop-color: #1a0f91" />
          </linearGradient>
          <path
            style="fill: url(#SVGID_00000001662111793261682350000012645091229347271573_)"
            d="M2140.842,1181.406l3.404-6.877
					l-279.133,40.561c-9.619,12.548-5.667,9.636-15.287,22.185C1849.826,1237.275,2134.314,1188.146,2140.842,1181.406z"
          />
          <path
            style="fill: #bdd0fb"
            d="M2139.779,1214.668l-298.885,41.616c-4.253,0.643-8.481-1.301-10.76-4.949l-10.22-16.352
					l324.331-47.554l3.091,23.308C2147.579,1213.117,2142.143,1214.311,2139.779,1214.668z"
          />
          <path
            style="fill: #7d97f4"
            d="M2143.073,1187.668l23.754-31.216l1.393,21.292c0.18,0.875,0.389,2.277,0.264,3.976
					c-0.308,4.198-2.43,7.197-3.478,8.64c-0.943,1.299-15.648,22.223-18.908,22.131
					C2145.992,1212.49,2143.86,1196.51,2143.073,1187.668z"
          />
          <g>
            <path
              style="fill: #7d97f4"
              d="M2158.831,1149.311l-0.178,0.208l-2.703,0.405l0.146-0.185l-281.622,44.229l-24.648,2.99
						c-6.87,1.078-8.078,4.12-13.089,8.943l-13.844,13.325c-7.584,7.299-5.824,19.69,4.573,18.048l295.281-45.378l16.492-2.59
						c1.708-0.268,6.872-3.17,7.99-4.488l18.217-23.732C2169.762,1155.993,2165.427,1148.276,2158.831,1149.311z M2127.755,1183.307
						l-265.341,41.07c-6.805,1.096-11.117-5.393-6.373-10.394l5.914-6.235c1.097-1.157,2.548-1.917,4.123-2.161l263.046-40.785
						c6.59-1.022,10.912,6.688,6.602,11.776l-3.62,4.273C2130.996,1182.163,2129.452,1183.034,2127.755,1183.307z"
            />
          </g>
        </g>
        <g>
          <g>
            <linearGradient
              id="SVGID_00000182515780425063720910000010993938745314443697_"
              gradientUnits="userSpaceOnUse"
              x1="1915.0276"
              y1="792.6206"
              x2="1792.9167"
              y2="1131.817"
            >
              <stop offset="0" style="stop-color: #ff928e" />
              <stop offset="1" style="stop-color: #fe7062" />
            </linearGradient>

            <circle style="fill: url(#SVGID_00000182515780425063720910000010993938745314443697_)" cx="1902.546" cy="827.292" r="115.693" />

            <linearGradient
              id="SVGID_00000101088021004961431030000003866522750342225812_"
              gradientUnits="userSpaceOnUse"
              x1="1915.0276"
              y1="792.6206"
              x2="1792.9163"
              y2="1131.8184"
            >
              <stop offset="0" style="stop-color: #ff928e" />
              <stop offset="1" style="stop-color: #fe7062" />
            </linearGradient>

            <circle style="fill: url(#SVGID_00000101088021004961431030000003866522750342225812_)" cx="1902.546" cy="827.292" r="111.846" />
            <path
              style="opacity: 0.7; fill: #ffffff"
              d="M1810.316,784.411c-0.542,0-1.091-0.122-1.608-0.385
						c-1.766-0.889-2.475-3.043-1.584-4.808c18.293-36.239,54.854-58.752,95.421-58.752c6.467,0,12.952,0.582,19.268,1.732
						c1.947,0.353,3.237,2.218,2.88,4.163c-0.349,1.943-2.209,3.23-4.16,2.88c-5.897-1.073-11.951-1.617-17.989-1.617
						c-37.847,0-71.961,21.005-89.03,54.819C1812.885,783.693,1811.623,784.411,1810.316,784.411z"
            />

            <ellipse
              transform="matrix(0.1222 -0.9925 0.9925 0.1222 848.714 2619.0601)"
              style="opacity: 0.78; fill: #ffffff"
              cx="1904.983"
              cy="829.729"
              rx="94.664"
              ry="94.664"
            />
            <g>
              <linearGradient
                id="SVGID_00000072242888905064224410000002677008029233378750_"
                gradientUnits="userSpaceOnUse"
                x1="1920.4545"
                y1="692.7642"
                x2="1901.7985"
                y2="869.1472"
              >
                <stop offset="0" style="stop-color: #ff928e" />
                <stop offset="1" style="stop-color: #fe7062" />
              </linearGradient>
              <path
                style="fill: url(#SVGID_00000072242888905064224410000002677008029233378750_)"
                d="M1895.693,900.103v-10.299
							c-10.736-0.43-21.356-2.964-28.898-6.265c-2.693-1.179-4.066-4.202-3.292-7.038l2.616-9.593
							c0.96-3.519,4.787-5.34,8.151-3.929c7.482,3.136,16.72,5.618,26.682,5.618c10.341,0,18.053-3.506,18.053-10.692
							c0-6.485-5.959-10.34-20.332-14.196c-20.506-5.609-35.229-14.548-35.229-32.601c0-16.301,11.919-28.745,32.601-32.075v-10.3
							c0-3.314,2.686-6.001,6.001-6.001h6.051c3.314,0,6.001,2.687,6.001,6.001v9.248c9.935,0.398,17.166,2.096,22.905,4.113
							c2.94,1.033,4.547,4.201,3.731,7.209l-2.406,8.872c-0.928,3.421-4.584,5.295-7.9,4.042
							c-5.284-1.998-12.755-4.079-22.465-4.079c-12.269,0-15.774,5.083-15.774,9.64c0,5.609,7.361,9.464,23.311,14.373
							c22.785,6.836,32.25,16.3,32.25,33.301c0,15.599-11.567,29.621-34.002,33.127v11.525c0,3.314-2.686,6.001-6.001,6.001h-6.052
							C1898.38,906.104,1895.693,903.417,1895.693,900.103z"
              />
            </g>
          </g>
          <g>
            <linearGradient
              id="SVGID_00000019639737946732428480000006204388022458123663_"
              gradientUnits="userSpaceOnUse"
              x1="2099.03"
              y1="858.8615"
              x2="1976.9194"
              y2="1198.0574"
            >
              <stop offset="0" style="stop-color: #e1473d" />
              <stop offset="1" style="stop-color: #e9605a" />
            </linearGradient>

            <circle style="fill: url(#SVGID_00000019639737946732428480000006204388022458123663_)" cx="2132.655" cy="765.458" r="171.519" />

            <linearGradient
              id="SVGID_00000145037228692409374350000004220289738817415074_"
              gradientUnits="userSpaceOnUse"
              x1="2099.03"
              y1="858.8615"
              x2="1976.9192"
              y2="1198.0581"
            >
              <stop offset="0" style="stop-color: #ff928e" />
              <stop offset="1" style="stop-color: #fe7062" />
            </linearGradient>

            <circle style="fill: url(#SVGID_00000145037228692409374350000004220289738817415074_)" cx="2132.655" cy="765.458" r="165.815" />
            <path
              style="opacity: 0.7; fill: #ffffff"
              d="M1995.923,700.466c-0.589,0-1.185-0.133-1.747-0.418
						c-1.918-0.966-2.688-3.305-1.72-5.223c26.876-53.245,80.594-86.322,140.198-86.322c9.511,0,19.038,0.858,28.315,2.548
						c2.111,0.385,3.512,2.411,3.125,4.522c-0.387,2.113-2.4,3.504-4.522,3.128c-8.817-1.608-17.873-2.422-26.917-2.422
						c-56.649,0-107.709,31.44-133.256,82.05C1998.714,699.685,1997.344,700.466,1995.923,700.466z"
            />

            <ellipse
              transform="matrix(0.7071 -0.7071 0.7071 0.7071 81.883 1735.8254)"
              style="opacity: 0.78; fill: #ffffff"
              cx="2136.268"
              cy="769.071"
              rx="140.342"
              ry="140.342"
            />
            <g>
              <linearGradient
                id="SVGID_00000100381718919236689250000015208546939029501583_"
                gradientUnits="userSpaceOnUse"
                x1="2166.3962"
                y1="615.3821"
                x2="2139.2605"
                y2="762.933"
              >
                <stop offset="0" style="stop-color: #ff928e" />
                <stop offset="1" style="stop-color: #fe7062" />
              </linearGradient>
              <path
                style="fill: url(#SVGID_00000100381718919236689250000015208546939029501583_)"
                d="M2122.496,873.404v-15.269
							c-15.917-0.637-31.66-4.394-42.842-9.289c-3.993-1.748-6.028-6.229-4.881-10.434l3.879-14.222
							c1.423-5.217,7.097-7.916,12.084-5.825c11.093,4.65,24.788,8.329,39.556,8.329c15.331,0,26.764-5.198,26.764-15.852
							c0-9.613-8.834-15.329-30.142-21.045c-30.401-8.315-52.229-21.568-52.229-48.332c0-24.167,17.67-42.615,48.332-47.551v-15.27
							c0-4.913,3.983-8.896,8.896-8.896h8.971c4.913,0,8.896,3.983,8.896,8.896v13.71c14.729,0.589,25.45,3.108,33.958,6.098
							c4.359,1.531,6.742,6.227,5.532,10.687l-3.567,13.153c-1.375,5.072-6.796,7.85-11.712,5.992
							c-7.833-2.963-18.909-6.047-33.305-6.047c-18.19,0-23.385,7.535-23.385,14.291c0,8.315,10.913,14.031,34.559,21.308
							c33.78,10.134,47.811,24.165,47.811,49.37c0,23.126-17.149,43.914-50.409,49.112v17.087c0,4.913-3.983,8.896-8.896,8.896
							h-8.972C2126.479,882.3,2122.496,878.317,2122.496,873.404z"
              />
            </g>
          </g>
          <g>
            <linearGradient
              id="SVGID_00000085932903395125234600000011307250452593817784_"
              gradientUnits="userSpaceOnUse"
              x1="1255.9799"
              y1="3330.126"
              x2="1133.8663"
              y2="3669.3296"
              gradientTransform="matrix(0.972 0.2349 -0.2349 0.972 126.6779 -267.4562)"
            >
              <stop offset="0" style="stop-color: #ff928e" />
              <stop offset="1" style="stop-color: #fe7062" />
            </linearGradient>
            <path
              style="fill: url(#SVGID_00000085932903395125234600000011307250452593817784_)"
              d="M1901.308,1224.028
						c1.421-0.206,4.447-0.7,6.989-1.092c58.26-8.998,63.205-18.092,97.112-22.786c31.819-4.405,41.004,1.304,93.029-6.205
						c2.715-0.392,4.955-0.734,6.457-0.968c2.262-3.046,5.466-7.613,8.851-13.428c6.954-11.944,12.314-25.084,15.727-39.206
						c18.931-78.341-29.231-157.195-107.572-176.126c-78.341-18.93-157.195,29.231-176.125,107.572
						C1831.562,1130.611,1855.501,1190.211,1901.308,1224.028z"
            />

            <linearGradient
              id="SVGID_00000148626202144025542290000006559560224151840669_"
              gradientUnits="userSpaceOnUse"
              x1="1255.9679"
              y1="3330.1213"
              x2="1133.8545"
              y2="3669.325"
              gradientTransform="matrix(0.972 0.2349 -0.2349 0.972 126.6779 -267.4562)"
            >
              <stop offset="0" style="stop-color: #ff928e" />
              <stop offset="1" style="stop-color: #fe7062" />
            </linearGradient>
            <path
              style="fill: url(#SVGID_00000148626202144025542290000006559560224151840669_)"
              d="M1908.297,1222.936l189.635-28.915
						c12.467-15.614,21.821-34.115,26.824-54.818c18.301-75.736-28.259-151.968-103.995-170.269
						c-75.736-18.301-151.968,28.259-170.269,103.995C1836.338,1131.507,1861.363,1190.798,1908.297,1222.936z"
            />
            <path
              style="opacity: 0.7; fill: #ffffff"
              d="M1887.488,1025.174c-0.514-0.124-1.006-0.366-1.438-0.734
						c-1.471-1.249-1.651-3.455-0.4-4.925c32.912-38.719,84.025-55.36,133.384-43.433c7.878,1.904,15.594,4.519,22.938,7.775
						c1.763,0.783,2.559,2.846,1.775,4.61c-0.784,1.764-2.832,2.554-4.611,1.779c-6.96-3.086-14.274-5.566-21.744-7.371
						c-46.782-11.304-95.224,4.469-126.418,41.167C1890.091,1025.081,1888.729,1025.474,1887.488,1025.174z"
            />
            <path
              style="opacity: 0.78; fill: #ffffff"
              d="M1939.028,1217.834l131.128-19.65c17.136-15.531,29.957-36.186,35.799-60.361
						c15.49-64.101-23.918-128.622-88.019-144.111c-64.101-15.489-128.622,23.918-144.111,88.019
						C1860.271,1137.821,1888.75,1194.232,1939.028,1217.834z"
            />
            <g>
              <linearGradient
                id="SVGID_00000060708962714240555130000002960210442306104511_"
                gradientUnits="userSpaceOnUse"
                x1="1649.7312"
                y1="3651.4019"
                x2="1693.8276"
                y2="3402.0874"
                gradientTransform="matrix(0.972 0.2349 -0.2349 0.972 126.6779 -267.4562)"
              >
                <stop offset="0" style="stop-color: #ff928e" />
                <stop offset="1" style="stop-color: #fe7062" />
              </linearGradient>
              <path
                style="fill: url(#SVGID_00000060708962714240555130000002960210442306104511_)"
                d="M1957.65,1193.309l3.051-12.627
							c-13.036-3.708-25.306-9.961-33.575-16.244c-2.953-2.244-3.741-6.356-1.952-9.605l6.05-10.987
							c2.219-4.03,7.451-5.128,11.158-2.402c8.244,6.062,18.836,11.841,31.049,14.793c12.679,3.064,23.173,1.05,25.302-7.761
							c1.921-7.951-4.242-14.443-20.722-23.429c-23.481-12.952-38.884-28.275-33.536-50.409c4.83-19.986,23.13-31.712,49.474-29.667
							l3.052-12.629c0.982-4.064,5.072-6.562,9.135-5.58l7.419,1.793c4.064,0.982,6.562,5.072,5.58,9.135l-2.74,11.338
							c12.063,3.431,20.426,7.656,26.865,11.829c3.299,2.138,4.33,6.498,2.439,9.944l-5.578,10.165
							c-2.151,3.92-7.19,5.134-10.883,2.615c-5.887-4.016-14.43-8.779-26.336-11.656c-15.043-3.635-20.846,1.558-22.196,7.146
							c-1.662,6.877,6.221,13.785,24.322,24.528c25.912,15.131,34.712,29.54,29.675,50.384
							c-4.622,19.126-22.959,32.89-51.504,30.542l-3.415,14.131c-0.982,4.063-5.072,6.562-9.135,5.58l-7.42-1.793
							C1959.166,1201.463,1956.668,1197.372,1957.65,1193.309z"
              />
            </g>
          </g>
        </g>
      </g>
      <g>
        <linearGradient
          id="SVGID_00000096773264897083780750000008187029609830830249_"
          gradientUnits="userSpaceOnUse"
          x1="1013.9257"
          y1="2264.0938"
          x2="922.1916"
          y2="2401.6946"
        >
          <stop offset="0" style="stop-color: #febbba" />
          <stop offset="1" style="stop-color: #ff928e" />
        </linearGradient>
        <path
          style="fill: url(#SVGID_00000096773264897083780750000008187029609830830249_)"
          d="M885.862,2485.353l101.339,1.254
				l-35.467-33.385c-8.816-8.298-22.272-9.642-32.447-3.042c-5.958,3.865-12.42,9.111-18.018,16.057c0,0-63.215-23.103-93.86-74.791
				c-9.544,14.178-20.705,33.476-30.375,57.484C804.506,2465.057,840.118,2477.738,885.862,2485.353z"
        />

        <linearGradient
          id="SVGID_00000075154238546763730560000007826744580627168950_"
          gradientUnits="userSpaceOnUse"
          x1="992.3099"
          y1="2709.9265"
          x2="963.4778"
          y2="3006.7261"
        >
          <stop offset="0" style="stop-color: #09005d" />
          <stop offset="1" style="stop-color: #1a0f91" />
        </linearGradient>
        <path
          style="fill: url(#SVGID_00000075154238546763730560000007826744580627168950_)"
          d="M1017.647,3208.045
				c-26.979,2.332-73.802,6.12-110.716,7.745c-22.19,0.976-34.964-1.197-42.322-4.142c0.013,0.83,0.036,1.613,0.069,2.342
				c0.175,3.884,3.331,6.992,7.254,7.211c69.75,3.893,125.222,1.347,144.97,0.146c4.083-0.249,6.517-4.687,4.429-8.168
				C1020.287,3211.437,1019.022,3209.731,1017.647,3208.045z"
        />

        <linearGradient
          id="SVGID_00000141434341145992899450000009258501254927055277_"
          gradientUnits="userSpaceOnUse"
          x1="1820.4518"
          y1="758.5751"
          x2="1698.3405"
          y2="1097.7727"
        >
          <stop offset="0" style="stop-color: #ff928e" />
          <stop offset="1" style="stop-color: #fe7062" />
        </linearGradient>
        <path
          style="fill: url(#SVGID_00000141434341145992899450000009258501254927055277_)"
          d="M906.932,3215.79
				c36.913-1.625,83.737-5.413,110.716-7.745c-26.525-32.543-110.716-54.477-110.716-54.477h-23.779
				c-16.354,23.574-18.722,46.018-18.544,58.08C871.968,3214.594,884.742,3216.767,906.932,3215.79z"
        />

        <linearGradient
          id="SVGID_00000024718580527083924990000009135320038372526220_"
          gradientUnits="userSpaceOnUse"
          x1="879.1498"
          y1="3141.7061"
          x2="923.5098"
          y2="3141.7061"
        >
          <stop offset="0" style="stop-color: #febbba" />
          <stop offset="1" style="stop-color: #ff928e" />
        </linearGradient>
        <path
          style="fill: url(#SVGID_00000024718580527083924990000009135320038372526220_)"
          d="M879.15,3114.75l2.225,44.033
				c0.242,4.768,3.81,8.775,8.586,9.458c4.751,0.68,11.114,0.766,17.862-1.48c4.151-1.382,7.233-4.88,7.998-9.146l7.689-42.865
				H879.15z"
        />
        <g>
          <linearGradient
            id="SVGID_00000029752350173013692540000013653492426274767279_"
            gradientUnits="userSpaceOnUse"
            x1="668.0458"
            y1="2678.4287"
            x2="639.2138"
            y2="2975.2268"
          >
            <stop offset="0" style="stop-color: #09005d" />
            <stop offset="1" style="stop-color: #1a0f91" />
          </linearGradient>
          <path
            style="fill: url(#SVGID_00000029752350173013692540000013653492426274767279_)"
            d="M603.174,3245.896
					c-11.7-1.9-16.994-8.976-19.213-16.541c-0.015,0.068-0.029,0.136-0.044,0.204c-1.721,7.98,2.269,16.25,10.247,20.183
					c9.642,4.754,20.185,5.564,28.37,5.171c8.781-0.421,16.842-4.652,21.272-11.423l0.067-0.102
					C635.057,3248.466,622.685,3249.064,603.174,3245.896z"
          />

          <linearGradient
            id="SVGID_00000006666907804191636380000017101205438038169247_"
            gradientUnits="userSpaceOnUse"
            x1="1541.8812"
            y1="658.2863"
            x2="1419.7699"
            y2="997.4843"
          >
            <stop offset="0" style="stop-color: #ff928e" />
            <stop offset="1" style="stop-color: #fe7062" />
          </linearGradient>
          <path
            style="fill: url(#SVGID_00000006666907804191636380000017101205438038169247_)"
            d="M658.336,3128.315h-19.61
					c-29.869-0.71-48.626,72.636-54.765,101.04c2.219,7.565,7.513,14.641,19.213,16.541c19.511,3.168,31.884,2.57,40.699-2.507
					c16.137-24.723,24.137-60.931,27.983-82.063C676.229,3137.293,658.336,3128.315,658.336,3128.315z"
          />
        </g>

        <linearGradient
          id="SVGID_00000040576917888676284580000012808047118159573666_"
          gradientUnits="userSpaceOnUse"
          x1="630.0047"
          y1="3118.5737"
          x2="683.0192"
          y2="3118.5737"
        >
          <stop offset="0" style="stop-color: #febbba" />
          <stop offset="1" style="stop-color: #ff928e" />
        </linearGradient>
        <path
          style="fill: url(#SVGID_00000040576917888676284580000012808047118159573666_)"
          d="M641.247,3087.445l-10.889,43.309
				c-1.335,5.31,1.206,10.802,6.116,13.321c6.091,3.127,14.667,6.411,22.549,5.46c3.706-0.447,6.786-3.058,8.011-6.548
				l15.986-45.565L641.247,3087.445z"
        />

        <linearGradient
          id="SVGID_00000107574154595915232610000011424536106742367667_"
          gradientUnits="userSpaceOnUse"
          x1="1058.8187"
          y1="2546.4773"
          x2="606.193"
          y2="3287.9216"
        >
          <stop offset="0" style="stop-color: #09005d" />
          <stop offset="1" style="stop-color: #1a0f91" />
        </linearGradient>
        <path
          style="fill: url(#SVGID_00000107574154595915232610000011424536106742367667_)"
          d="M1024.29,2517.05
				c0,0-97.308,608.257-95.706,611.6c0,0-26.876,12.215-56.174,1.557c0,0,8.799-325.157,29.418-449.83
				c0,0-166.071,290.626-218.809,435.439c0,0-27.506-3.28-50.275-18.265c0,0,178.813-523.113,226.518-592.789L1024.29,2517.05z"
        />

        <linearGradient
          id="SVGID_00000062897935206664724660000004662791096352895907_"
          gradientUnits="userSpaceOnUse"
          x1="1095.1023"
          y1="2907.4255"
          x2="995.039"
          y2="2739.5227"
        >
          <stop offset="0" style="stop-color: #09005d" />
          <stop offset="1" style="stop-color: #1a0f91" />
        </linearGradient>
        <path
          style="fill: url(#SVGID_00000062897935206664724660000004662791096352895907_)"
          d="M905.712,2678.029
				c-0.669,0-1.347-0.18-1.956-0.562c-1.727-1.082-2.252-3.361-1.17-5.088l36.365-58.082c0.539-0.862,1.406-1.461,2.402-1.662
				l26.76-5.388c1.991-0.415,3.945,0.895,4.349,2.892c0.402,1.998-0.893,3.945-2.892,4.349l-25.203,5.074l-35.521,56.734
				C908.144,2677.416,906.942,2678.029,905.712,2678.029z"
        />

        <linearGradient
          id="SVGID_00000134250024099972349570000003417302052411644344_"
          gradientUnits="userSpaceOnUse"
          x1="1359.1993"
          y1="2001.8727"
          x2="1149.2307"
          y2="2275.0361"
        >
          <stop offset="0" style="stop-color: #febbba" />
          <stop offset="1" style="stop-color: #ff928e" />
        </linearGradient>
        <path
          style="fill: url(#SVGID_00000134250024099972349570000003417302052411644344_)"
          d="M1470.83,1921.434
				c0,0-65.661,14.483-105.599,32.921c-7.932,3.662-14.259,10.066-17.862,17.958c-11.944,26.164-47.681,91.775-116.984,123.086
				c9.98,13.247,26.051,40.802,33.051,87.115c41.625-30.981,77.56-82.72,94.812-167.573c0,0,13.137,7.142,29.526-0.817
				c8.659-4.206,18.656-10.17,26.161-14.861c7.477-4.674,13.047-11.94,15.21-20.426c2.856-11.205,1.174-21.059,1.174-31.629
				l33.751-10.457C1464.071,1936.751,1474.217,1932.922,1470.83,1921.434z"
        />

        <linearGradient
          id="SVGID_00000159451568502140606330000014530461087317858488_"
          gradientUnits="userSpaceOnUse"
          x1="1539.2809"
          y1="657.3523"
          x2="1417.1698"
          y2="996.5496"
        >
          <stop offset="0" style="stop-color: #ff928e" />
          <stop offset="1" style="stop-color: #fe7062" />
        </linearGradient>
        <path
          style="fill: url(#SVGID_00000159451568502140606330000014530461087317858488_)"
          d="M1263.436,2182.515
				c-7-46.314-23.071-73.868-33.051-87.115c-43.053,19.451-99.056,25.67-170.37,0.958c-6.574-2.277-13.431-3.611-20.384-4.019
				c-37.964-2.226-163.069-6.288-266.59,27.914c-21.787,7.198-39.433,23.303-48.527,44.173
				c-28.004,64.264-73.342,210.617,52.52,284.505c9.67-24.008,20.831-43.305,30.375-57.484
				c-20.269-34.188-26.272-80.884,9.697-141.691c26.227,70.818,38.53,174.151,41.102,219.882
				c0.847,15.056-1.795,30.083-7.702,43.984l-0.645,1.517c-1.264,2.975,0.476,6.393,3.656,7.107
				c70.855,15.917,144.55,11.592,166.567,9.774c3.931-0.325,7.196-3.137,8.098-6.936c34.455-145.179,34.534-244.211,26.098-306.813
				C1086.51,2225.474,1185.068,2240.843,1263.436,2182.515z"
        />

        <linearGradient
          id="SVGID_00000151518013490469184250000010194217647461318074_"
          gradientUnits="userSpaceOnUse"
          x1="1025.5792"
          y1="2174.6895"
          x2="1058.1157"
          y2="2174.6895"
        >
          <stop offset="0" style="stop-color: #e1473d" />
          <stop offset="1" style="stop-color: #e9605a" />
        </linearGradient>
        <path
          style="fill: url(#SVGID_00000151518013490469184250000010194217647461318074_)"
          d="M1054.417,2222.992
				c-1.823,0-3.409-1.353-3.655-3.209c-8.061-60.895-24.451-87.471-24.615-87.735c-1.085-1.724-0.572-4.003,1.149-5.092
				c1.729-1.082,3.997-0.577,5.09,1.14c0.707,1.115,17.392,27.972,25.697,90.721c0.269,2.02-1.154,3.876-3.175,4.143
				C1054.744,2222.981,1054.58,2222.992,1054.417,2222.992z"
        />

        <linearGradient
          id="SVGID_00000087378902324811526760000011111199903166803887_"
          gradientUnits="userSpaceOnUse"
          x1="891.1846"
          y1="2178.4224"
          x2="914.1555"
          y2="2057.825"
        >
          <stop offset="0" style="stop-color: #febbba" />
          <stop offset="1" style="stop-color: #ff928e" />
        </linearGradient>
        <path
          style="fill: url(#SVGID_00000087378902324811526760000011111199903166803887_)"
          d="M879.561,2007.765
				c0,0-7.168,75.789-13.479,98.207c-0.957,3.401,0.52,6.988,3.61,8.754c10.712,6.12,36.402,16.103,71.543-1.119
				c5.693-2.79,9.115-8.724,8.85-15.005l-3.096-73.236L879.561,2007.765z"
        />
        <g>
          <linearGradient
            id="SVGID_00000054226803780979655150000008519574200604024710_"
            gradientUnits="userSpaceOnUse"
            x1="953.3408"
            y1="1957.1647"
            x2="822.2773"
            y2="2057.4482"
          >
            <stop offset="0" style="stop-color: #febbba" />
            <stop offset="1" style="stop-color: #ff928e" />
          </linearGradient>
          <path
            style="fill: url(#SVGID_00000054226803780979655150000008519574200604024710_)"
            d="M948.535,1910.807
					c0,0,22.926,52.666,24.465,80.308c1.54,27.642,7.497,45.579-24.465,51.146c-31.962,5.566-58.888-10.356-73.475-37.891
					c0,0-22.855-42.429-17.728-59.805C862.459,1927.19,948.535,1910.807,948.535,1910.807z"
          />

          <linearGradient
            id="SVGID_00000078734477271316667980000015286258959693383601_"
            gradientUnits="userSpaceOnUse"
            x1="861.0781"
            y1="1877.7627"
            x2="983.1422"
            y2="2034.92"
          >
            <stop offset="0" style="stop-color: #09005d" />
            <stop offset="1" style="stop-color: #1a0f91" />
          </linearGradient>
          <path
            style="fill: url(#SVGID_00000078734477271316667980000015286258959693383601_)"
            d="M885.982,1984.573l1.82-0.802
					c2.316-1.021,3.307-3.778,2.143-6.027c-4.507-8.708-13.294-28.664-1.943-33.319c14.629-6,72.573-17.816,85.075-38.376
					c12.016-19.76,1.369-45.268-14.631-52.523c-1.07-0.486-2.333-0.1-2.882,0.939l-1.333,2.523
					c-0.913,1.727-3.464,1.466-4.006-0.411l0,0c-0.521-1.801-2.918-2.151-3.911-0.56c-3.844,6.152-14.218,16.124-41.963,21.244
					c-39.43,7.278-65.5,23.235-66.149,50.482c-0.041,1.731-1.883,2.693-3.361,1.792c-2.911-1.774-7.57-2.607-13.797,2.629
					c-10.829,9.105-6.398,32.726,17.341,52.155c1.128,0.923,1.118,2.683-0.103,3.478c-4.304,2.802-10.719,9.468,5.904,18.354
					c17.194,9.191,30.034,8.437,34.978,7.621c1.23-0.203,2.023-1.394,1.755-2.611l-5.277-23.948
					c-0.299-1.355,0.733-2.639,2.121-2.639H885.982z"
          />

          <linearGradient
            id="SVGID_00000060735580928063668940000001999813261509620148_"
            gradientUnits="userSpaceOnUse"
            x1="937.084"
            y1="1935.9181"
            x2="806.0207"
            y2="2036.2015"
          >
            <stop offset="0" style="stop-color: #febbba" />
            <stop offset="1" style="stop-color: #ff928e" />
          </linearGradient>
          <path
            style="fill: url(#SVGID_00000060735580928063668940000001999813261509620148_)"
            d="M886.975,1989.626
					c0,0-8.747-33.642-23.83-24.209c-15.083,9.432,7.827,37.694,19.953,38.954L886.975,1989.626z"
          />
        </g>

        <linearGradient
          id="SVGID_00000125583485951770332580000005452366108164862132_"
          gradientUnits="userSpaceOnUse"
          x1="1599.5433"
          y1="1707.8613"
          x2="1521.5277"
          y2="1806.2288"
        >
          <stop offset="0" style="stop-color: #febbba" />
          <stop offset="1" style="stop-color: #ff928e" />
        </linearGradient>
        <path
          style="fill: url(#SVGID_00000125583485951770332580000005452366108164862132_)"
          d="M1375.761,2007.935
				c-0.818,0-1.643-0.27-2.328-0.826c-1.583-1.287-1.823-3.613-0.536-5.196c2.494-3.069,24.618-30.118,33.239-34.99
				c2.845-1.608,4.596-3.271,4.929-4.688c0.051-0.216,0.166-0.707-0.106-1.572l-25.004,5.005l-14.504,12.451
				c-1.549,1.327-3.88,1.147-5.207-0.397c-1.329-1.547-1.15-3.88,0.397-5.207l15.237-13.079c0.481-0.411,1.058-0.696,1.68-0.818
				l28.662-5.74c1.462-0.285,2.955,0.324,3.786,1.557c2.205,3.267,2.961,6.462,2.245,9.495c-0.845,3.592-3.62,6.675-8.483,9.423
				c-5.613,3.173-21.697,21.604-31.141,33.219C1377.898,2007.47,1376.834,2007.935,1375.761,2007.935z"
        />

        <linearGradient
          id="SVGID_00000169542005926411702770000003060329167660577415_"
          gradientUnits="userSpaceOnUse"
          x1="904.6066"
          y1="2418.1409"
          x2="844.1381"
          y2="2508.8435"
        >
          <stop offset="0" style="stop-color: #febbba" />
          <stop offset="1" style="stop-color: #ff928e" />
        </linearGradient>
        <path
          style="fill: url(#SVGID_00000169542005926411702770000003060329167660577415_)"
          d="M843.42,2444.544
				c0,0,8.622-14.37,28.74-14.37c20.118,0,43.11,37.362,43.11,37.362s-31.614,14.37-43.11,25.866
				C860.664,2504.897,843.42,2467.535,843.42,2444.544z"
        />
      </g>
      <g>
        <g>
          <linearGradient
            id="SVGID_00000105400857228594622590000006674787362501743489_"
            gradientUnits="userSpaceOnUse"
            x1="-316.7811"
            y1="2501.6267"
            x2="208.4992"
            y2="2001.5522"
            gradientTransform="matrix(-0.9999 0.0161 0.0161 0.9999 2831.8738 -15.4091)"
          >
            <stop offset="0" style="stop-color: #09005d" />
            <stop offset="1" style="stop-color: #1a0f91" />
          </linearGradient>
          <path
            style="fill: url(#SVGID_00000105400857228594622590000006674787362501743489_)"
            d="M2693.518,2198.028
					c9.655-15.943,26.498-26.414,36.657-42.041c12.796-19.685,13.234-45.751,4.85-67.682c-6.956-18.196-19.347-33.907-26.441-52.05
					c-9.548-24.419-9.727-34.922-5.377-59.436c3.832-21.592,12.221-44.59,32.948-56.973c25.637-15.317,56.996-18.223,86.341-12.679
					c30.459,5.754,59.991,18.688,82.274,40.236c22.283,21.549,36.81,51.783,36.44,82.779c-0.25,20.971-6.999,42.588-0.278,62.454
					c5.226,15.448,18.811,27.778,34.692,31.486c17.651,4.121,35.995-1.912,54.118-1.676c17.964,0.234,35.778,6.895,49.489,18.503
					c12.145,10.284,21.145,24.706,23.193,40.487c2.048,15.782-3.448,32.76-15.579,43.059c-8.296,7.044-19.97,11.813-23.032,22.256
					c-3.427,11.684,6.63,23.423,17.844,28.167c11.214,4.745,23.832,5.151,35.244,9.399c25.531,9.502,41,38.276,39.005,65.445
					c-1.994,27.169-19.182,51.762-41.724,67.058c-22.542,15.297-49.902,22.164-77.054,24.378
					c-27.152,2.213-54.44,0.049-81.652-1.233c-31.125-1.467-62.869-1.877-92.386-11.862c-29.849-10.097-55.64-29.414-79.688-49.777
					c-11.386-9.641-22.934-20.188-28.045-34.205c-3.711-10.177-3.728-21.484-7.995-31.441c-9.156-21.367-34.544-30.45-49.229-48.471
					C2683.244,2245.941,2681.309,2218.188,2693.518,2198.028z"
          />
          <path
            style="fill: #91b3fa"
            d="M3031.21,2236.427c0.057,0,0.114-0.004,0.173-0.015c12.872-2.37,24.218-11.798,28.905-24.014
					c4.686-12.224,2.555-26.818-5.432-37.186c-11.862-15.399-32.748-19.385-53.125-22.148l-36.924-5.008
					c-20.838-2.825-42.185-6.87-54.168-22.269c-12.782-16.427-10.23-38.865-7.765-60.568c0.283-2.484,0.562-4.949,0.816-7.382
					c3.229-31.002-0.015-57.956-9.645-80.107c-11.75-27.027-33.653-46.912-58.59-53.188c-0.51-0.14-1.014,0.177-1.143,0.684
					c-0.127,0.503,0.18,1.014,0.684,1.139c24.376,6.136,45.804,25.616,57.322,52.114c9.5,21.854,12.696,48.488,9.501,79.16
					c-0.254,2.429-0.533,4.89-0.814,7.367c-2.51,22.078-5.104,44.906,8.149,61.935c12.419,15.96,34.177,20.105,55.399,22.982
					l36.924,5.008c19.989,2.708,40.462,6.595,51.886,21.428c7.596,9.861,9.624,23.742,5.167,35.364
					c-4.457,11.621-15.248,20.586-27.49,22.838c-0.511,0.096-0.849,0.584-0.755,1.095
					C3030.37,2236.111,3030.765,2236.427,3031.21,2236.427z"
          />
          <path
            style="fill: #91b3fa"
            d="M3019.563,2225.092c0.461,0,0.924-0.169,1.286-0.507c4.514-4.229,9.63-9.024,12.665-15.101
					c2.758-5.519,4.134-13.708-0.279-20.156c-2.875-4.199-7.573-6.606-12.22-8.583c-11.278-4.799-23.129-8.234-35.228-10.203
					c-7.874-1.286-15.931-1.955-23.724-2.605c-10.062-0.838-20.465-1.705-30.42-3.902c-11.904-2.627-33.264-9.828-42.556-28.526
					c-7.51-15.112-4.721-31.965-1.769-49.807c2.394-14.465,4.868-29.426,1.475-43.641c-0.242-1.011-1.26-1.639-2.267-1.393
					c-1.01,0.242-1.633,1.257-1.393,2.267c3.217,13.477,0.805,28.056-1.528,42.154c-2.919,17.647-5.937,35.893,2.113,52.096
					c9.99,20.101,32.553,27.751,45.113,30.525c10.203,2.252,20.735,3.13,30.92,3.979c7.721,0.643,15.703,1.308,23.43,2.564
					c11.802,1.925,23.362,5.273,34.361,9.953c3.841,1.635,8.144,3.678,10.589,7.245c2.877,4.203,2.884,10.622,0.018,16.35
					c-2.734,5.475-7.379,9.828-11.871,14.035c-0.758,0.713-0.797,1.903-0.086,2.66
					C3018.56,2224.894,3019.061,2225.092,3019.563,2225.092z"
          />

          <linearGradient
            id="SVGID_00000138556025697437567260000002299566066241282969_"
            gradientUnits="userSpaceOnUse"
            x1="2730.5608"
            y1="-4987.6709"
            x2="2608.4492"
            y2="-4648.4722"
            gradientTransform="matrix(-0.9999 0.0161 0.0161 0.9999 2831.8738 -15.4091)"
          >
            <stop offset="0" style="stop-color: #ff928e" />
            <stop offset="1" style="stop-color: #fe7062" />
          </linearGradient>
          <path
            style="fill: url(#SVGID_00000138556025697437567260000002299566066241282969_)"
            d="M2720.415,2161.675
					c17.58-5.581,68.859-16.188,118.513,28.175c8.421,7.524,11.999,19.105,9.216,30.049
					c-12.362,48.591-44.731,192.083-13.334,253.439c0,0-52.622,59.92-111.835,13.262c0,0-28.065-113.868-63.22-163.489
					c-24.272-34.257,35.717-130.686,50.913-153.993C2712.967,2165.588,2716.4,2162.949,2720.415,2161.675z"
          />

          <linearGradient
            id="SVGID_00000056411916171446363870000004599991533632240257_"
            gradientUnits="userSpaceOnUse"
            x1="-6713.4619"
            y1="3436.7891"
            x2="-6699.3208"
            y2="3336.387"
            gradientTransform="matrix(0.9646 0.2639 -0.2639 0.9646 10111.1621 665.1306)"
          >
            <stop offset="0" style="stop-color: #febbba" />
            <stop offset="1" style="stop-color: #ff928e" />
          </linearGradient>
          <path
            style="fill: url(#SVGID_00000056411916171446363870000004599991533632240257_)"
            d="M2767.643,2064.772
					c0,0,27.317,73.479,29.807,106.05c0,0-28.664,13.595-56.229-8.128c0,0-4.044-73.768-8.382-86.919L2767.643,2064.772z"
          />

          <linearGradient
            id="SVGID_00000100368618247792010220000004510403061744502155_"
            gradientUnits="userSpaceOnUse"
            x1="-6778.293"
            y1="3221.656"
            x2="-6646.0698"
            y2="3373.6768"
            gradientTransform="matrix(0.9646 0.2639 -0.2639 0.9646 10111.1621 665.1306)"
          >
            <stop offset="0" style="stop-color: #febbba" />
            <stop offset="1" style="stop-color: #ff928e" />
          </linearGradient>
          <path
            style="fill: url(#SVGID_00000100368618247792010220000004510403061744502155_)"
            d="M2729.73,1964.595
					c0,0-66.795,96.732-25.499,123.852c41.296,27.119,88.847-41.625,88.847-41.625s15.013-52.599-1.853-70.088
					C2774.36,1959.244,2729.73,1964.595,2729.73,1964.595z"
          />

          <linearGradient
            id="SVGID_00000173159628978392116430000007993246997391245976_"
            gradientUnits="userSpaceOnUse"
            x1="-6545.2534"
            y1="3003.2095"
            x2="-6718.8267"
            y2="3209.4553"
            gradientTransform="matrix(0.9646 0.2639 -0.2639 0.9646 10111.1621 665.1306)"
          >
            <stop offset="0" style="stop-color: #09005d" />
            <stop offset="1" style="stop-color: #1a0f91" />
          </linearGradient>
          <path
            style="fill: url(#SVGID_00000173159628978392116430000007993246997391245976_)"
            d="M2760.991,1941.232
					c0,0-31.272,7.944-35.443,22.218c-4.171,14.276,44.959,26.659,58.676,27.083l11.968,57.14c0,0,31.779-54.446,18.345-85.378
					C2801.103,1931.362,2760.991,1941.232,2760.991,1941.232z"
          />

          <linearGradient
            id="SVGID_00000086680478887283884790000017481597044004474008_"
            gradientUnits="userSpaceOnUse"
            x1="-6745.2583"
            y1="3192.9207"
            x2="-6613.0361"
            y2="3344.9402"
            gradientTransform="matrix(0.9646 0.2639 -0.2639 0.9646 10111.1621 665.1306)"
          >
            <stop offset="0" style="stop-color: #febbba" />
            <stop offset="1" style="stop-color: #ff928e" />
          </linearGradient>
          <path
            style="fill: url(#SVGID_00000086680478887283884790000017481597044004474008_)"
            d="M2779.718,2039.998
					c0,0,26.102-31.232,37.005-11.321c10.903,19.912-23.375,35.545-35.484,25.877L2779.718,2039.998z"
          />

          <linearGradient
            id="SVGID_00000124154833517014778810000016320744739819885449_"
            gradientUnits="userSpaceOnUse"
            x1="6246.5625"
            y1="3376.2717"
            x2="6562.0317"
            y2="2819.4014"
            gradientTransform="matrix(-1 0.0066 0.0066 1 9204.791 -61.4477)"
          >
            <stop offset="0" style="stop-color: #febbba" />
            <stop offset="1" style="stop-color: #ff928e" />
          </linearGradient>
          <path
            style="fill: url(#SVGID_00000124154833517014778810000016320744739819885449_)"
            d="M2658.609,2727.664
					c0.284,5.185-8.163,46.487-12.767,68.52c-1.853,8.865-0.314,18.086,4.309,25.873l176.352,286.21
					c2.134,3.462,3.706,7.224,4.689,11.17c3.365,13.51,10.427,46.64,7.506,76.93l-8.585,18.591l38.274-9.341l6.696-103.295
					l-10.982-6.456c-9.487-5.577-16.941-14.023-21.293-24.131c-16.133-37.462-56.233-132.839-66.926-179.463
					c-12.15-52.988-71.89-95.223-71.89-95.223l9.978-24.691L2658.609,2727.664z"
          />

          <linearGradient
            id="SVGID_00000088114688979066172170000002122047195352174483_"
            gradientUnits="userSpaceOnUse"
            x1="6315.3315"
            y1="3179.3857"
            x2="6407.5435"
            y2="3179.3857"
            gradientTransform="matrix(-1 0.0066 0.0066 1 9204.791 -61.4477)"
          >
            <stop offset="0" style="stop-color: #09005d" />
            <stop offset="1" style="stop-color: #1a0f91" />
          </linearGradient>
          <path
            style="fill: url(#SVGID_00000088114688979066172170000002122047195352174483_)"
            d="M2910.508,3169.43
					c0,0-21.274-32.554-23.92-45.317c-2.647-12.763-9.806-35.26-22.485-28.248c0,0-5.025,62.286-2.556,86.552
					c2.469,24.267-27.092,23.961-27.092,23.961s-8.125,1.276-13.992,7.334c-4.052,4.183-0.992,11.279,4.825,11.56
					c9.678,0.467,25.04,0.383,41.116-2.993c5.619-1.18,9.719-6.043,9.969-11.778l3.104-71.643l26.699,32.619L2910.508,3169.43z"
          />

          <linearGradient
            id="SVGID_00000014617973853818682630000002437311048346887567_"
            gradientUnits="userSpaceOnUse"
            x1="6604.0679"
            y1="2964.3127"
            x2="6132.2681"
            y2="3115.1792"
            gradientTransform="matrix(-1 0.0066 0.0066 1 9204.791 -61.4477)"
          >
            <stop offset="0" style="stop-color: #febbba" />
            <stop offset="1" style="stop-color: #ff928e" />
          </linearGradient>
          <path
            style="fill: url(#SVGID_00000014617973853818682630000002437311048346887567_)"
            d="M2761.92,2772.043
					c0,0,10.219,258.389,11.631,295.087c1.411,36.698-3.895,118.162-40.306,143.073l16.205,11.598c0,0,19.74-17.332,38.764-50.384
					c21.372-37.129,27.905-43.955,27.905-43.955l-7.528-14.808c-3.297-6.483-4.353-13.861-2.999-21.006
					c7.322-38.62,31.791-167.076,38.584-194.765c8.019-32.684,7.926-76.156-22.381-112.059
					C2791.488,2748.922,2761.92,2772.043,2761.92,2772.043z"
          />

          <linearGradient
            id="SVGID_00000044876636392188400310000004129997636009221054_"
            gradientUnits="userSpaceOnUse"
            x1="6400.8247"
            y1="3196.0405"
            x2="6510.75"
            y2="3196.0405"
            gradientTransform="matrix(-1 0.0066 0.0066 1 9204.791 -61.4477)"
          >
            <stop offset="0" style="stop-color: #09005d" />
            <stop offset="1" style="stop-color: #1a0f91" />
          </linearGradient>
          <path
            style="fill: url(#SVGID_00000044876636392188400310000004129997636009221054_)"
            d="M2803.333,3232.587
					c1.142-0.008,2.099-0.841,2.242-1.974c1.086-8.637,5.627-43.268,9.656-52.281c4.614-10.322,19.53-53.695-0.927-57.027
					c0,0-49.519,74.909-59.093,85.054c-9.574,10.147-21.965,3.845-21.965,3.845s-9.44,2.955-16.446,12.211
					c-3.334,4.405-0.06,10.74,5.465,10.704l34.163-0.225c9.922-0.065,18.747-6.235,22.287-15.504
					c5.771-15.115,15.745-37.31,27.625-47.276l-5.29,59.995C2800.931,3231.447,2801.99,3232.596,2803.333,3232.587
					L2803.333,3232.587z"
          />

          <linearGradient
            id="SVGID_00000023245049951060037840000012625929839864806309_"
            gradientUnits="userSpaceOnUse"
            x1="2797.0903"
            y1="2473.7073"
            x2="2730.9502"
            y2="2941.7764"
          >
            <stop offset="0" style="stop-color: #09005d" />
            <stop offset="1" style="stop-color: #1a0f91" />
          </linearGradient>
          <path
            style="fill: url(#SVGID_00000023245049951060037840000012625929839864806309_)"
            d="M2714.439,2458.86
					c0,0,8.093,24.41-3.082,65.011l-69.231,257.349c-1.088,4.044,1.152,8.221,5.116,9.573c22.069,7.521,94.56,28.618,192.917,20.245
					c4.952-0.422,9.053-3.999,10.052-8.867c6.018-29.309,26.55-129.306,30.778-149.852c16.111-78.291,34.147-162.732-51.981-212.229
					C2789.966,2457.562,2753.456,2468.078,2714.439,2458.86z"
          />

          <linearGradient
            id="SVGID_00000170960340546058917420000010756715097754009522_"
            gradientUnits="userSpaceOnUse"
            x1="6289.0664"
            y1="2598.6975"
            x2="6812.3687"
            y2="2000.1168"
            gradientTransform="matrix(-0.9941 -0.1087 -0.1087 0.9941 9471.2598 593.1596)"
          >
            <stop offset="0" style="stop-color: #febbba" />
            <stop offset="1" style="stop-color: #ff928e" />
          </linearGradient>
          <path
            style="fill: url(#SVGID_00000170960340546058917420000010756715097754009522_)"
            d="M2846.083,2199.39
					c0,0,84.581,68.019,106.821,162.467c22.24,94.449-120.274,106.82-120.274,106.82s-19.717-21.317-42.588-13.232
					c-22.87,8.084-2.388-37.719,24.519-38.033c26.906-0.314,14.785,21.161,52.567,3.308c36.805-17.391,58.885-69.699-36.979-146.908
					c-5.557-4.475-10.026-10.223-12.767-16.811C2798.26,2211.037,2812.347,2180.479,2846.083,2199.39z"
          />
        </g>
        <g>
          <g>
            <linearGradient
              id="SVGID_00000135670834117980372270000017206989741896944277_"
              gradientUnits="userSpaceOnUse"
              x1="3073.7595"
              y1="2623.9988"
              x2="2860.3376"
              y2="2868.4817"
            >
              <stop offset="0" style="stop-color: #09005d" />
              <stop offset="1" style="stop-color: #1a0f91" />
            </linearGradient>
            <path
              style="fill: url(#SVGID_00000135670834117980372270000017206989741896944277_)"
              d="M2991.615,2933.538h-49.134
						c-11.223,0-20.352-9.129-20.352-20.352v-333.891c0-11.223,9.129-20.352,20.352-20.352h49.134
						c11.223,0,20.352,9.129,20.352,20.352v333.891C3011.968,2924.408,3002.838,2933.538,2991.615,2933.538z M2942.482,2565.727
						c-7.483,0-13.568,6.085-13.568,13.568v333.891c0,7.483,6.085,13.568,13.568,13.568h49.134c7.483,0,13.568-6.085,13.568-13.568
						v-333.891c0-7.483-6.085-13.568-13.568-13.568H2942.482z"
            />

            <linearGradient
              id="SVGID_00000088118267793745609280000014385825016722084798_"
              gradientUnits="userSpaceOnUse"
              x1="3006.1235"
              y1="2559.7441"
              x2="2929.0864"
              y2="2647.9929"
            >
              <stop offset="0" style="stop-color: #09005d" />
              <stop offset="1" style="stop-color: #1a0f91" />
            </linearGradient>
            <path
              style="fill: url(#SVGID_00000088118267793745609280000014385825016722084798_)"
              d="M3017.055,2637.479h-16.96v-55.368
						c0-6.228-5.068-11.296-11.296-11.296h-43.503c-6.228,0-11.296,5.068-11.296,11.296v55.368h-16.96v-55.368
						c0-15.579,12.677-28.256,28.255-28.256h43.503c15.579,0,28.255,12.677,28.255,28.256V2637.479z"
            />
          </g>
          <g>
            <linearGradient
              id="SVGID_00000076565532132612209440000002043011857612455336_"
              gradientUnits="userSpaceOnUse"
              x1="3062.064"
              y1="2873.7429"
              x2="2663.2241"
              y2="3330.6292"
            >
              <stop offset="0" style="stop-color: #ff928e" />
              <stop offset="1" style="stop-color: #fe7062" />
            </linearGradient>
            <path
              style="fill: url(#SVGID_00000076565532132612209440000002043011857612455336_)"
              d="M3070.81,3183.264h-179.838
						c-2.75,0-5-2.25-5-5v-423.069c0-2.75,2.25-5,5-5h179.838c2.75,0,5,2.25,5,5v423.069
						C3075.81,3181.014,3073.56,3183.264,3070.81,3183.264z"
            />

            <linearGradient
              id="SVGID_00000168827616744168529660000013944320270374645660_"
              gradientUnits="userSpaceOnUse"
              x1="2937.3159"
              y1="3181.9058"
              x2="2889.0825"
              y2="3237.1589"
            >
              <stop offset="0" style="stop-color: #09005d" />
              <stop offset="1" style="stop-color: #1a0f91" />
            </linearGradient>
            <path
              style="fill: url(#SVGID_00000168827616744168529660000013944320270374645660_)"
              d="M2937.842,3218.858h-20.685
						c-1.925,0-3.5-1.575-3.5-3.5v-44.415c0-1.925,1.575-3.5,3.5-3.5h20.685c1.925,0,3.5,1.575,3.5,3.5v44.415
						C2941.342,3217.283,2939.767,3218.858,2937.842,3218.858z"
            />

            <linearGradient
              id="SVGID_00000052088790446243997390000004845419863948107940_"
              gradientUnits="userSpaceOnUse"
              x1="3321.7605"
              y1="2656.1345"
              x2="2933.7888"
              y2="3100.571"
            >
              <stop offset="0" style="stop-color: #ff928e" />
              <stop offset="1" style="stop-color: #fe7062" />
            </linearGradient>
            <path
              style="fill: url(#SVGID_00000052088790446243997390000004845419863948107940_)"
              d="M3056.036,2750.195h-19.775v433.069
						h19.775c10.876,0,19.775-8.899,19.775-19.775V2769.97C3075.81,2759.094,3066.912,2750.195,3056.036,2750.195z"
            />

            <linearGradient
              id="SVGID_00000178186882971469152370000007415858638559096711_"
              gradientUnits="userSpaceOnUse"
              x1="3040.1448"
              y1="3181.9058"
              x2="2991.9116"
              y2="3237.1589"
            >
              <stop offset="0" style="stop-color: #09005d" />
              <stop offset="1" style="stop-color: #1a0f91" />
            </linearGradient>
            <path
              style="fill: url(#SVGID_00000178186882971469152370000007415858638559096711_)"
              d="M3040.671,3218.858h-20.685
						c-1.925,0-3.5-1.575-3.5-3.5v-44.415c0-1.925,1.575-3.5,3.5-3.5h20.685c1.925,0,3.5,1.575,3.5,3.5v44.415
						C3044.171,3217.283,3042.596,3218.858,3040.671,3218.858z"
            />
          </g>
        </g>
      </g>
      <g>
        <g>
          <linearGradient
            id="SVGID_00000083784610994312505960000010488658055249761726_"
            gradientUnits="userSpaceOnUse"
            x1="1318.5294"
            y1="2616.509"
            x2="1092.2046"
            y2="2875.7727"
          >
            <stop offset="0" style="stop-color: #2b3582" />
            <stop offset="1" style="stop-color: #150e42" />
          </linearGradient>
          <path
            style="fill: url(#SVGID_00000083784610994312505960000010488658055249761726_)"
            d="M1232.39,2944.316h-54.047
					c-11.223,0-20.352-9.129-20.352-20.352v-355.647c0-11.223,9.129-20.352,20.352-20.352h54.047
					c11.223,0,20.352,9.129,20.352,20.352v355.647C1252.742,2935.187,1243.613,2944.316,1232.39,2944.316z M1178.344,2554.75
					c-7.483,0-13.568,6.085-13.568,13.568v355.647c0,7.483,6.085,13.568,13.568,13.568h54.047c7.483,0,13.568-6.085,13.568-13.568
					v-355.647c0-7.483-6.085-13.568-13.568-13.568H1178.344z"
          />

          <linearGradient
            id="SVGID_00000171707088520724312040000014160723383878858907_"
            gradientUnits="userSpaceOnUse"
            x1="1246.4703"
            y1="2549.0308"
            x2="1165.4224"
            y2="2641.8743"
          >
            <stop offset="0" style="stop-color: #2b3582" />
            <stop offset="1" style="stop-color: #150e42" />
          </linearGradient>
          <path
            style="fill: url(#SVGID_00000171707088520724312040000014160723383878858907_)"
            d="M1257.83,2630.946h-16.96v-58.644
					c0-6.874-5.591-12.465-12.465-12.465h-46.077c-6.873,0-12.465,5.591-12.465,12.465v58.644h-16.96v-58.644
					c0-16.225,13.2-29.425,29.425-29.425h46.077c16.224,0,29.425,13.2,29.425,29.425V2630.946z"
          />
        </g>

        <linearGradient
          id="SVGID_00000168833260471671164080000003937818634808837280_"
          gradientUnits="userSpaceOnUse"
          x1="1295.1433"
          y1="2956.6924"
          x2="756.5057"
          y2="3136.2378"
        >
          <stop offset="0" style="stop-color: #ff928e" />
          <stop offset="1" style="stop-color: #fe7062" />
        </linearGradient>
        <path
          style="fill: url(#SVGID_00000168833260471671164080000003937818634808837280_)"
          d="M1301.994,3236.537h-207.086
				c-2.75,0-5-2.25-5-5v-485.228c0-2.75,2.25-5,5-5h207.086c2.75,0,5,2.25,5,5v485.228
				C1306.994,3234.287,1304.744,3236.537,1301.994,3236.537z"
        />

        <linearGradient
          id="SVGID_00000064325698339306576410000004206454722829253804_"
          gradientUnits="userSpaceOnUse"
          x1="2163.3694"
          y1="2511.3274"
          x2="1783.4674"
          y2="2721.6306"
        >
          <stop offset="0" style="stop-color: #ff928e" />
          <stop offset="1" style="stop-color: #fe7062" />
        </linearGradient>
        <path
          style="fill: url(#SVGID_00000064325698339306576410000004206454722829253804_)"
          d="M1309.793,2740.155h-20.944v495.994
				h20.944c11.519,0,20.944-9.425,20.944-20.944v-454.106C1330.738,2749.58,1321.313,2740.155,1309.793,2740.155z"
        />

        <linearGradient
          id="SVGID_00000087406426240395772820000008796049906281619883_"
          gradientUnits="userSpaceOnUse"
          x1="1146.7711"
          y1="3207.5396"
          x2="1095.5327"
          y2="3266.2351"
        >
          <stop offset="0" style="stop-color: #09005d" />
          <stop offset="1" style="stop-color: #1a0f91" />
        </linearGradient>
        <path
          style="fill: url(#SVGID_00000087406426240395772820000008796049906281619883_)"
          d="M1147.504,3246.713h-22.322
				c-1.925,0-3.5-1.575-3.5-3.5v-47.456c0-1.925,1.575-3.5,3.5-3.5h22.322c1.925,0,3.5,1.575,3.5,3.5v47.456
				C1151.004,3245.138,1149.429,3246.713,1147.504,3246.713z"
        />

        <linearGradient
          id="SVGID_00000104667127400672272940000011760668594990074785_"
          gradientUnits="userSpaceOnUse"
          x1="1292.9939"
          y1="3207.5396"
          x2="1241.7554"
          y2="3266.2351"
        >
          <stop offset="0" style="stop-color: #09005d" />
          <stop offset="1" style="stop-color: #1a0f91" />
        </linearGradient>
        <path
          style="fill: url(#SVGID_00000104667127400672272940000011760668594990074785_)"
          d="M1293.727,3246.713h-22.322
				c-1.925,0-3.5-1.575-3.5-3.5v-47.456c0-1.925,1.575-3.5,3.5-3.5h22.322c1.925,0,3.5,1.575,3.5,3.5v47.456
				C1297.227,3245.138,1295.652,3246.713,1293.727,3246.713z"
        />
      </g>
    </g>
  </g>
</svg>
